<svg width="32" height="32" viewBox="0 0 32 32" fill="none" xmlns="http://www.w3.org/2000/svg">
<g clip-path="url(#clip0)">
<path d="M10.7478 6.73593C9.08132 9.55565 8.2285 13.3 9.92734 17.6887C11.5767 21.9496 14.5497 24.2612 17.7407 25.2746C12.9828 26.3604 8.00962 23.8151 6.19707 19.1326C4.36322 14.3952 6.39537 9.09629 10.7478 6.73593ZM11.1908 4.33189C5.02001 6.72059 1.94323 13.6838 4.33193 19.8546C6.72063 26.0254 13.6839 29.1022 19.8547 26.7135C21.621 26.0298 23.3435 25.0059 24.437 23.6755C20.9955 24.3503 14.4833 23.918 11.7925 16.9667C9.06516 9.92113 14.0571 5.02707 16.6243 3.49285C14.7555 3.48497 12.9571 3.64817 11.1908 4.33189V4.33189ZM15.1614 14.5892C16.6596 14.4789 18.1152 15.1229 19.0415 16.3052C18.9331 14.8063 19.5761 13.351 20.7572 12.4242C19.2595 12.5332 17.8046 11.8911 16.8755 10.7098C16.9864 12.2067 16.3434 13.662 15.1614 14.5892ZM22.6232 11.7018C23.6224 11.6292 24.5913 12.0573 25.2107 12.8459C25.1359 11.8465 25.5655 10.876 26.3526 10.2582C25.3547 10.3314 24.3845 9.90269 23.7654 9.11506C23.838 10.1142 23.4103 11.084 22.6232 11.7018ZM18.4417 3.66971C18.5529 5.16756 17.909 6.62318 16.7292 7.5506C18.2291 7.44182 19.6821 8.08463 20.6116 9.26683C20.5 7.76804 21.1439 6.31242 22.3218 5.38572C20.8277 5.49549 19.3708 4.85097 18.4417 3.66971Z" fill="white"/>
</g>
<defs>
<clipPath id="clip0">
<rect width="24" height="24" fill="white" transform="translate(0 8.66382) rotate(-21.1613)"/>
</clipPath>
</defs>
</svg>
