<svg width="56" height="56" viewBox="0 0 56 56" fill="none" xmlns="http://www.w3.org/2000/svg">
<path d="M34.4142 37.1933C34.4299 37.1412 34.4422 37.0881 34.4511 37.0344C34.454 37.0204 34.456 37.0066 34.4578 36.992C34.4642 36.9481 34.4678 36.9038 34.4687 36.8594L34.4704 36.8186C34.4702 36.7651 34.4665 36.7116 34.4593 36.6585V36.6585C34.451 36.6058 34.4388 36.5538 34.4227 36.503C34.418 36.4886 34.4131 36.4734 34.4081 36.4581C34.396 36.4233 34.3818 36.3891 34.3656 36.356C34.3596 36.3373 34.3487 36.3212 34.3393 36.3037C34.3218 36.2729 34.3024 36.2418 34.2813 36.2112C34.271 36.1968 34.2613 36.1813 34.2499 36.1663C34.218 36.1234 34.183 36.0828 34.1452 36.045C34.1327 36.0322 34.119 36.0217 34.1057 36.0092C34.0768 35.9813 34.0464 35.9549 34.0148 35.9302L33.9537 35.8856C33.938 35.8747 33.9249 35.8631 33.9084 35.8526L33.8378 35.8129L33.7998 35.7906C33.3517 35.5205 32.8512 35.3499 32.3322 35.2902C31.8133 35.2305 31.2878 35.2831 30.7914 35.4445C30.2949 35.6059 29.839 35.8723 29.4543 36.2258C29.0696 36.5793 28.7652 37.0115 28.5615 37.4935L28.547 37.5263C28.5362 37.5532 28.5254 37.5801 28.5146 37.6042C28.5038 37.6283 28.5026 37.6417 28.4966 37.6605C28.4906 37.6793 28.4812 37.7048 28.4754 37.7273C28.4631 37.7696 28.4536 37.812 28.4449 37.8541C28.4431 37.8687 28.4385 37.8833 28.4365 37.8971C28.428 37.9512 28.4234 38.0059 28.4226 38.0606C28.4222 38.0767 28.4238 38.093 28.4242 38.1087C28.4249 38.1476 28.4275 38.1864 28.4322 38.225C28.4377 38.2419 28.437 38.2599 28.44 38.2776C28.4471 38.3165 28.4566 38.3545 28.467 38.3923C28.4714 38.4058 28.4756 38.4185 28.4797 38.4312C28.5158 38.5351 28.5677 38.6328 28.6335 38.7208C28.6368 38.731 28.6479 38.7395 28.6549 38.7494C28.6835 38.786 28.7142 38.8211 28.7467 38.8542L28.7723 38.8815C28.8133 38.9215 28.8566 38.9589 28.902 38.9937C28.9022 38.9958 28.9029 38.9978 28.9039 38.9996C28.9578 39.0399 29.014 39.0769 29.0723 39.1104L29.0846 39.1167C29.1384 39.1466 29.1951 39.175 29.2548 39.2017L29.2967 39.219C29.3507 39.2416 29.4043 39.2635 29.4662 39.2817C29.4807 39.2864 29.4947 39.2921 29.5101 39.2964C29.5837 39.3193 29.6606 39.3411 29.7424 39.3575C31.1198 39.6534 33.0032 39.0411 33.9433 37.9918C33.9986 37.9299 34.0478 37.869 34.0939 37.8073C34.1052 37.7933 34.1137 37.7793 34.1241 37.7656C34.1595 37.7167 34.1914 37.6689 34.2212 37.6199L34.2472 37.5769C34.2781 37.5243 34.3062 37.4702 34.3315 37.4148L34.3406 37.3968C34.3677 37.3365 34.3911 37.2745 34.4107 37.2113L34.4142 37.1933Z" fill="white"/>
<g style="mix-blend-mode:multiply" opacity="0.2">
<path d="M34.4142 37.1933C34.4299 37.1412 34.4422 37.0881 34.4511 37.0344C34.454 37.0204 34.456 37.0066 34.4578 36.992C34.4642 36.9481 34.4678 36.9038 34.4687 36.8594L34.4704 36.8186C34.4702 36.7651 34.4665 36.7116 34.4593 36.6585V36.6585C34.451 36.6058 34.4388 36.5538 34.4227 36.503C34.418 36.4886 34.4131 36.4734 34.4081 36.4581C34.396 36.4233 34.3818 36.3891 34.3656 36.356C34.3596 36.3373 34.3487 36.3212 34.3393 36.3037C34.3218 36.2729 34.3024 36.2418 34.2813 36.2112C34.271 36.1968 34.2613 36.1813 34.2499 36.1663C34.218 36.1234 34.183 36.0828 34.1452 36.045C34.1327 36.0322 34.119 36.0217 34.1057 36.0092C34.0768 35.9813 34.0464 35.9549 34.0148 35.9302L33.9537 35.8856C33.938 35.8747 33.9249 35.8631 33.9084 35.8526L33.8378 35.8129L33.7998 35.7906C33.3517 35.5205 32.8512 35.3499 32.3322 35.2902C31.8133 35.2305 31.2878 35.2831 30.7914 35.4445C30.2949 35.6059 29.839 35.8723 29.4543 36.2258C29.0696 36.5793 28.7652 37.0115 28.5615 37.4935L28.547 37.5263C28.5362 37.5532 28.5254 37.5801 28.5146 37.6042C28.5038 37.6283 28.5026 37.6417 28.4966 37.6605C28.4906 37.6793 28.4812 37.7048 28.4754 37.7273C28.4631 37.7696 28.4536 37.812 28.4449 37.8541C28.4431 37.8687 28.4385 37.8833 28.4365 37.8971C28.428 37.9512 28.4234 38.0059 28.4226 38.0606C28.4222 38.0767 28.4238 38.093 28.4242 38.1087C28.4249 38.1476 28.4275 38.1864 28.4322 38.225C28.4377 38.2419 28.437 38.2599 28.44 38.2776C28.4471 38.3165 28.4566 38.3545 28.467 38.3923C28.4714 38.4058 28.4756 38.4185 28.4797 38.4312C28.5158 38.5351 28.5677 38.6328 28.6335 38.7208C28.6368 38.731 28.6479 38.7395 28.6549 38.7494C28.6835 38.786 28.7142 38.8211 28.7467 38.8542L28.7723 38.8815C28.8133 38.9215 28.8566 38.9589 28.902 38.9937C28.9022 38.9958 28.9029 38.9978 28.9039 38.9996C28.9578 39.0399 29.014 39.0769 29.0723 39.1104L29.0846 39.1167C29.1384 39.1466 29.1951 39.175 29.2548 39.2017L29.2967 39.219C29.3507 39.2416 29.4043 39.2635 29.4662 39.2817C29.4807 39.2864 29.4947 39.2921 29.5101 39.2964C29.5837 39.3193 29.6606 39.3411 29.7424 39.3575C31.1198 39.6534 33.0032 39.0411 33.9433 37.9918C33.9986 37.9299 34.0478 37.869 34.0939 37.8073C34.1052 37.7933 34.1137 37.7793 34.1241 37.7656C34.1595 37.7167 34.1914 37.6689 34.2212 37.6199L34.2472 37.5769C34.2781 37.5243 34.3062 37.4702 34.3315 37.4148L34.3406 37.3968C34.3677 37.3365 34.3911 37.2745 34.4107 37.2113L34.4142 37.1933Z" fill="black"/>
</g>
<g opacity="0.5">
<path opacity="0.5" d="M31.5579 36.2519C31.442 36.3252 31.8432 36.7111 32.3816 37.4528C32.6656 37.8451 32.9458 38.449 33.5418 37.8689C34.0918 37.3337 33.2965 36.7532 32.6316 36.4333C32.0413 36.1481 31.6823 36.1731 31.5579 36.2519Z" fill="white"/>
<path opacity="0.5" d="M31.5821 35.9279C31.6599 35.9409 32.088 35.8617 32.95 36.2662C33.4131 36.4842 33.8273 36.8154 33.9772 36.8265C34.1271 36.8377 34.0295 36.2249 33.7107 36.0067C33.3161 35.7384 32.8518 35.592 32.3756 35.5857C31.8732 35.5966 31.453 35.9063 31.5821 35.9279Z" fill="white"/>
<path opacity="0.5" d="M31.904 38.8614C31.2223 39.0831 31.0667 38.9971 30.9707 37.8075C30.9194 37.1797 31.0122 36.5022 31.1251 36.4654C31.2381 36.4287 31.7115 36.9222 32.0401 37.4599C32.6619 38.4785 32.5866 38.6395 31.904 38.8614Z" fill="white"/>
<path opacity="0.5" d="M30.6503 36.547C30.7872 36.5381 30.6896 37.0862 30.6903 38.0027C30.6912 38.487 30.8197 39.1402 29.9965 39.0215C29.237 38.912 29.5389 37.9748 29.8886 37.3251C30.1983 36.7473 30.5034 36.5564 30.6503 36.547Z" fill="white"/>
<path opacity="0.5" d="M30.4394 36.2993C30.3849 36.3554 29.9921 36.5429 29.5328 37.377C29.2864 37.8257 29.1461 38.3372 29.0314 38.4343C28.9167 38.5315 28.6353 37.9784 28.7649 37.6145C28.926 37.1652 29.2155 36.7738 29.5972 36.4889C30.01 36.2022 30.5319 36.2056 30.4394 36.2993Z" fill="white"/>
</g>
<path d="M29.97 32.9123C29.8903 32.9367 29.8182 32.9811 29.7603 33.0412C29.7408 33.0599 29.7258 33.0828 29.7164 33.1082C29.7071 33.1336 29.7037 33.1609 29.7064 33.1878C30.0933 34.5728 30.203 35.2715 30.0033 36.1362C30.0476 36.2724 30.1812 36.3796 30.3954 36.425C30.6299 36.4675 30.8712 36.4486 31.096 36.3703V36.3703C31.3242 36.3015 31.5308 36.1747 31.6957 36.0023C31.8422 35.8396 31.8873 35.6744 31.843 35.5382C31.1722 34.9536 30.8509 34.3265 30.3494 32.9788C30.3358 32.9554 30.317 32.9354 30.2945 32.9203C30.272 32.9052 30.2464 32.8955 30.2196 32.8919C30.136 32.8771 30.05 32.8841 29.97 32.9123V32.9123Z" fill="white"/>
<g style="mix-blend-mode:multiply" opacity="0.3">
<path d="M29.97 32.9123C29.8903 32.9367 29.8182 32.9811 29.7603 33.0412C29.7408 33.0599 29.7258 33.0828 29.7164 33.1082C29.7071 33.1336 29.7037 33.1609 29.7064 33.1878C30.0933 34.5728 30.203 35.2715 30.0033 36.1362C30.0476 36.2724 30.1812 36.3796 30.3954 36.425C30.6299 36.4675 30.8712 36.4486 31.096 36.3703V36.3703C31.3242 36.3015 31.5308 36.1747 31.6957 36.0023C31.8422 35.8396 31.8873 35.6744 31.843 35.5382C31.1722 34.9536 30.8509 34.3265 30.3494 32.9788C30.3358 32.9554 30.317 32.9354 30.2945 32.9203C30.272 32.9052 30.2464 32.8955 30.2196 32.8919C30.136 32.8771 30.05 32.8841 29.97 32.9123V32.9123Z" fill="black"/>
</g>
<g style="mix-blend-mode:multiply" opacity="0.15">
<path d="M30.3987 33.1162C30.1832 33.1956 29.9649 33.2666 29.7439 33.329C29.8637 33.7635 29.9743 34.1896 30.0629 34.5967C30.3343 34.5029 30.6017 34.3979 30.8652 34.2817C30.7052 33.9155 30.5509 33.5213 30.3987 33.1162Z" fill="black"/>
</g>
<g style="mix-blend-mode:multiply" opacity="0.15">
<path d="M30.0484 38.8027C28.8854 38.51 28.6008 37.4023 29.0625 36.6442C28.8583 36.9027 28.6899 37.1878 28.5618 37.4917L28.5473 37.5245C28.5365 37.5514 28.5257 37.5783 28.5149 37.6024C28.5041 37.6265 28.5029 37.64 28.4969 37.6587C28.4909 37.6775 28.4814 37.703 28.4757 37.7255C28.4634 37.7679 28.4539 37.8102 28.4452 37.8523C28.4434 37.867 28.4388 37.8815 28.4368 37.8953C28.4283 37.9494 28.4237 38.0041 28.4229 38.0589C28.4225 38.0749 28.4241 38.0912 28.4237 38.1072C28.4254 38.1469 28.4277 38.1854 28.4325 38.2232C28.438 38.2401 28.4373 38.2581 28.4403 38.2758C28.4473 38.3147 28.4569 38.3527 28.4673 38.3905C28.4717 38.4041 28.4759 38.4167 28.48 38.4294C28.5158 38.534 28.5676 38.6323 28.6335 38.721C28.6368 38.7311 28.6479 38.7397 28.6549 38.7496C28.6835 38.7862 28.7142 38.8212 28.7467 38.8544L28.7724 38.8816C28.8133 38.9216 28.8566 38.9591 28.902 38.9938C28.9022 38.9959 28.9029 38.998 28.9039 38.9998C28.9578 39.04 29.014 39.0771 29.0723 39.1106L29.0846 39.1169C29.1384 39.1468 29.1951 39.1751 29.2548 39.2019L29.2967 39.2191C29.3507 39.2418 29.4044 39.2637 29.4662 39.2819C29.4807 39.2865 29.4947 39.2923 29.5101 39.2966C29.5837 39.3195 29.6606 39.3412 29.7424 39.3577C31.1198 39.6536 33.0032 39.0413 33.9433 37.992C33.9986 37.9301 34.0478 37.8692 34.0939 37.8074C34.1052 37.7935 34.1137 37.7795 34.1241 37.7658C34.1595 37.7169 34.1914 37.6691 34.2212 37.6201L34.2472 37.577C34.2781 37.5245 34.3062 37.4704 34.3315 37.4149L34.3406 37.397C33.4133 38.6461 31.2132 39.0984 30.0484 38.8027Z" fill="#4F4F4F"/>
</g>
<path d="M35.5062 27.3191C34.9161 28.4827 34.1032 29.5177 33.1136 30.3652C32.1241 31.2127 30.9775 31.8559 29.7391 32.2582C27.2382 33.0707 24.5156 32.8525 22.1704 31.6516C19.8251 30.4507 18.0493 28.3654 17.2336 25.8545C16.4179 23.3437 16.629 20.6129 17.8207 18.2629L17.0139 17.8507C14.158 23.4854 15.8658 30.1146 21.4917 32.992C27.1176 35.8693 33.445 33.3606 36.3051 27.7245L35.5062 27.3191Z" fill="#4F4F4F"/>
<path d="M16.595 18.7663L17.411 19.1839C17.5321 18.8702 17.6688 18.5629 17.8207 18.2631L17.0139 17.8509C16.8607 18.1533 16.721 18.4584 16.595 18.7663Z" fill="#4F4F4F"/>
<path d="M35.5062 27.3191C35.3555 27.6165 35.19 27.906 35.0102 28.1866L35.8205 28.6014C35.9916 28.3194 36.1536 28.0285 36.3065 27.7287L35.5062 27.3191Z" fill="#4F4F4F"/>
<path d="M16.6982 27.0546C17.6979 29.2039 19.3448 31.5413 22.124 32.7444C24.492 33.7688 27.8666 34.5764 31.9933 32.5295C28.9211 34.4693 25.0635 34.8188 21.4912 32.9904C16.0343 30.1974 14.2635 23.876 16.7717 18.3553C16.6745 18.6011 14.8952 23.1795 16.6982 27.0546Z" fill="#4F4F4F"/>
<path d="M36.9238 28.4841C37.0297 28.4499 37.1231 28.3849 37.192 28.2974C37.2609 28.2098 37.3023 28.1036 37.3109 27.9923C37.3196 27.881 37.295 27.7695 37.2404 27.672C37.1858 27.5745 37.1037 27.4955 37.0043 27.4448L16.8304 17.1284C16.697 17.0601 16.5421 17.0477 16.3999 17.094C16.2576 17.1402 16.1397 17.2413 16.0719 17.3749C16.0042 17.5086 15.9922 17.6639 16.0386 17.8067C16.085 17.9495 16.1861 18.0681 16.3195 18.1364L36.4946 28.4506C36.6278 28.5182 36.7821 28.5302 36.9238 28.4841V28.4841Z" fill="#4F4F4F"/>
<path d="M16.8304 17.1284L37.0043 27.4448C37.1002 27.4942 37.18 27.5701 37.2343 27.6636C37.2886 27.757 37.3151 27.864 37.3108 27.9719C37.228 28.0341 37.1293 28.0714 37.0261 28.0796C36.9229 28.0878 36.8195 28.0666 36.7277 28.0183L16.5537 17.7019C16.4577 17.6526 16.3778 17.5768 16.3235 17.4833C16.2691 17.3898 16.2427 17.2828 16.2473 17.1748C16.3306 17.1139 16.4292 17.0773 16.5321 17.0691C16.635 17.0609 16.7382 17.0814 16.8304 17.1284V17.1284Z" fill="#4F4F4F"/>
<path d="M17.9246 25.6307C18.5629 27.5934 19.8383 29.2863 21.5469 30.4385C23.2555 31.5908 25.2986 32.1359 27.3494 31.9866C29.4002 31.8374 31.3403 31.0024 32.8594 29.6153C34.3786 28.2282 35.389 26.369 35.7291 24.335C36.0692 22.3011 35.7193 20.2099 34.7355 18.3959C33.7516 16.5819 32.1906 15.1498 30.302 14.3287C28.4135 13.5075 26.3065 13.3448 24.318 13.8665C22.3294 14.3882 20.5743 15.5642 19.3332 17.2064C18.438 18.3908 17.8423 19.7756 17.597 21.2426C17.3517 22.7095 17.4641 24.2151 17.9246 25.6307V25.6307Z" fill="white"/>
<path opacity="0.5" d="M17.9427 25.6117C18.581 27.5744 19.8564 29.2672 21.565 30.4195C23.2736 31.5717 25.3167 32.1168 27.3675 31.9676C29.4183 31.8183 31.3584 30.9834 32.8775 29.5963C34.3967 28.2091 35.4071 26.3499 35.7472 24.316C36.0873 22.2821 35.7374 20.1909 34.7536 18.3768C33.7697 16.5628 32.2087 15.1307 30.3201 14.3096C28.4316 13.4885 26.3246 13.3258 24.3361 13.8475C22.3476 14.3692 20.5924 15.5452 19.3513 17.1874C18.4561 18.3717 17.8605 19.7565 17.6152 21.2235C17.3699 22.6905 17.4822 24.1961 17.9427 25.6117Z" fill="white"/>
<path d="M26.0778 14.8631C25.6571 14.8417 25.1095 14.9543 25.4838 15.2199C25.858 15.4855 26.1056 15.5247 26.0882 15.8353C26.0709 16.1459 25.848 16.4579 25.9329 16.6847C26.0179 16.9115 26.1653 17.1789 26.3297 17.117C26.4941 17.0551 26.9629 16.594 27.2104 16.6333C27.458 16.6726 28.3046 16.7687 28.4459 16.4983C28.5872 16.2278 28.712 16.2565 28.9353 15.9603C29.1586 15.6641 29.171 15.2522 28.927 15.2324C28.6829 15.2126 28.6397 15.3174 28.2265 15.259C27.8134 15.2006 27.6397 14.9128 27.2305 14.9579C26.8212 15.0031 26.3857 14.8789 26.0778 14.8631Z" fill="black"/>
<path d="M24.5308 14.8481C24.0385 15.0708 23.0111 15.387 22.5554 15.2264C22.3297 15.1454 22.0616 15.0343 21.7719 14.9601C19.8988 16.1441 18.5151 17.9665 17.8743 20.0934C17.9697 20.3323 18.0948 20.5581 18.2466 20.7656C18.5802 21.2185 18.9536 21.2982 19.4079 21.4171C19.8621 21.5361 19.7021 21.7892 19.9095 22.0745C20.1168 22.3597 20.2038 22.527 20.4534 22.69C20.703 22.853 20.3342 23.1029 20.2166 23.3946C20.099 23.6864 20.0553 23.8502 20.2286 24.4693C20.4019 25.0884 20.9834 25.6215 21.1495 25.8687C21.3156 26.116 20.9908 26.3666 21.0364 26.8625C21.0821 27.3584 20.9742 28.6601 21.3955 29.423C21.8168 30.186 22.1032 30.1209 22.0973 29.6242C22.0915 29.1275 21.9666 28.649 22.2721 28.2989C22.5776 27.9489 23.1529 28.0846 23.3933 27.4199C23.6338 26.7552 23.7572 26.7965 24.0854 26.5879C24.4135 26.3792 24.2864 26.1717 24.6111 25.6686C24.9358 25.1655 25.0546 24.6769 24.6388 24.4323C24.2229 24.1877 23.9366 24.1928 23.5999 23.6558C23.237 23.0992 22.7621 22.6245 22.2059 22.2624C21.6916 21.9357 20.8218 22.2325 20.4898 22.1112C20.1578 21.99 19.987 21.3299 20.0247 21.0819C20.0624 20.8339 19.816 20.7522 19.5684 20.7962C19.3209 20.8401 19.1966 20.6757 19.1505 20.3446C19.1043 20.0134 19.6377 19.6361 20.0503 19.633C20.463 19.6298 20.6748 19.8341 20.7182 20.3719C20.7296 20.5883 20.8084 20.7959 20.9434 20.9655C21.0784 21.135 21.2629 21.258 21.4709 21.3171C21.8435 21.4373 21.6325 21.026 21.3814 20.7381C21.1304 20.4502 21.1283 20.203 21.3691 19.6196C21.6099 19.0362 22.1056 19.1164 22.5122 18.5931C22.9189 18.0699 22.9642 18.4874 23.3357 18.5668C23.7072 18.6462 23.667 18.4394 23.8256 18.1073C23.9841 17.7751 24.4443 18.1016 24.8543 17.8495C25.2643 17.5974 24.4746 17.1086 24.5515 16.7319C24.6284 16.3551 25.0021 16.3983 24.8311 15.8206C24.6601 15.2429 24.948 15.24 25.1102 15.0395C25.2723 14.839 25.0177 14.6261 24.5308 14.8481ZM23.8861 16.1867C23.7445 16.4563 23.6409 16.3955 23.4179 16.6869C23.1949 16.9783 22.8665 17.1262 22.6596 17.1374C22.4526 17.1485 22.1399 16.76 22.1369 16.5327C22.1338 16.3055 22.4649 16.2605 22.8356 16.2373C23.2064 16.2141 23.5285 16.0757 23.8827 15.8352C24.1574 15.6458 24.0251 15.918 23.8835 16.1876L23.8861 16.1867Z" fill="black"/>
<path d="M35.8545 22.7157L35.8555 22.7416C35.7712 22.7683 35.6934 22.812 35.6267 22.87C35.56 22.9281 35.5059 22.9992 35.4676 23.0791C35.2262 23.5776 35.2033 23.3521 34.69 23.6649C34.1767 23.9777 34.3465 24.2677 34.3476 24.6181C34.3488 24.9685 33.7581 25.3271 33.4699 25.432C33.1816 25.5369 33.0057 26.3257 33.0719 26.7185C33.1381 27.1114 32.6661 27.2387 32.3601 27.5729C32.0541 27.9072 31.8537 28.4859 31.6505 28.7578C31.5519 28.8935 31.4163 28.9977 31.26 29.0578C31.1037 29.118 30.9332 29.1314 30.7692 29.0967C30.4378 29.0173 30.1633 28.4396 30.0137 27.9447C29.8561 27.4413 29.8429 26.9039 29.9754 26.394C30.1138 25.8766 30.0725 25.9387 30.0019 25.1113C29.9314 24.2839 29.3706 24.0004 29.0603 23.9001C28.7501 23.7998 28.2159 23.9482 27.9457 23.7648C27.6755 23.5813 27.57 23.3341 27.4378 22.5491C27.3056 21.7642 27.6937 21.6166 28.0213 21.2201C28.349 20.8235 28.9607 20.4264 29.4979 20.3163C30.0351 20.2062 30.384 20.3706 30.6937 20.5552C31.0034 20.7399 31.1329 21.1094 31.3602 21.1496C31.5876 21.1898 31.7926 21.0839 32.0199 21.1438C32.2472 21.2036 32.3933 21.3264 32.6188 21.3036C32.8443 21.2808 32.7201 21.0134 32.6972 20.8684C32.6743 20.7233 32.4712 20.7463 32.2011 20.7266C31.931 20.7068 31.8698 20.6275 31.7854 20.4426C31.7011 20.2577 31.5379 20.4033 31.4134 20.3213C31.2888 20.2392 31.2924 20.5711 31.2728 20.6972C31.2532 20.8233 31.1689 20.5925 31.1689 20.5925C31.1689 20.5925 31.047 20.7594 31.0041 20.676C30.9612 20.5927 31.0837 20.4079 31.0816 20.2093C31.0795 20.0107 30.792 20.0378 30.6239 19.8735C30.4559 19.7092 30.2103 19.6703 29.963 19.7348C29.7156 19.7993 29.6742 19.7351 29.554 19.9444C29.4339 20.1537 28.8964 20.2602 28.7318 20.2211C28.5672 20.182 28.7041 19.8494 28.8694 19.558C29.0346 19.2667 29.3201 19.3881 29.5237 19.0974C29.7274 18.8067 29.4786 18.7463 29.3124 18.6853C29.1463 18.6242 29.1047 18.4591 29.3038 18.0856C29.503 17.7122 29.7343 17.8334 29.8189 18.0192C29.9036 18.205 30.1101 18.3072 30.3384 18.3246C30.5668 18.342 30.5221 18.1788 30.5385 17.848C30.5549 17.5171 30.7185 17.3498 31.0261 17.2442C31.3338 17.1385 31.8484 16.9675 32.0532 16.8008C32.2581 16.6341 32.5888 16.7745 32.7555 16.9804C32.9221 17.1863 33.315 17.2858 33.7259 17.3861C33.779 17.398 33.8341 17.3972 33.8867 17.3836C33.9393 17.3701 33.9879 17.3443 34.0286 17.3083C35.1939 18.8718 35.8335 20.7658 35.8545 22.7157V22.7157Z" fill="black"/>
<path d="M33.8414 27.1222C33.62 27.0688 33.6352 27.1443 33.4929 27.3113C33.3506 27.4782 33.1428 27.6674 33.1683 27.8518C33.1937 28.0362 33.1937 28.2654 33.3554 28.1408C33.5171 28.0162 33.4752 27.8502 33.6995 27.7661C33.9237 27.682 34.172 27.2018 33.8414 27.1222Z" fill="black"/>
<path opacity="0.1" d="M29.6013 14.7787C23.8704 12.6904 22.5199 16.613 25.4511 19.3384C28.3823 22.0637 33.6352 23.255 34.4602 21.6482C35.2852 20.0413 33.8655 16.3335 29.6013 14.7787Z" fill="white"/>
<path opacity="0.15" d="M23.873 27.2299C19.5764 23.1851 20.1911 15.9413 24.3238 13.8672C24.152 13.9119 23.9812 13.9599 23.8127 14.0147C22.3726 14.4826 21.0709 15.3006 20.0234 16.3959C18.9759 17.4913 18.2151 18.83 17.8087 20.2929C17.4023 21.7559 17.3628 23.2978 17.6937 24.7815C18.0247 26.2652 18.7159 27.6447 19.7058 28.7973C20.6957 29.9499 21.9536 30.8399 23.3677 31.3881C24.7818 31.9362 26.3082 32.1256 27.8111 31.9393C29.3141 31.7531 30.747 31.197 31.9823 30.3204C33.2177 29.4439 34.2173 28.2742 34.8922 26.9153C33.4923 28.6136 28.1685 31.2714 23.873 27.2299Z" fill="#CACACA"/>
<path d="M20.4395 12.392C20.2426 12.4999 20.0966 12.6818 20.0335 12.8979C19.9705 13.1139 19.9955 13.3465 20.1032 13.5444C20.489 14.2525 21.5958 14.5157 21.5958 14.5157C21.5958 14.5157 21.9748 13.4402 21.5893 12.733C21.4815 12.5349 21.2998 12.3878 21.0842 12.3239C20.8686 12.2599 20.6367 12.2845 20.4395 12.392V12.392ZM21.0176 13.4539C20.9464 13.4928 20.8652 13.5096 20.7844 13.5022C20.7035 13.4948 20.6266 13.4635 20.5633 13.4123C20.5001 13.3611 20.4534 13.2922 20.4291 13.2144C20.4048 13.1367 20.404 13.0535 20.4269 12.9754C20.4497 12.8973 20.4952 12.8278 20.5574 12.7757C20.6197 12.7236 20.696 12.6912 20.7768 12.6827C20.8575 12.6741 20.939 12.6898 21.0109 12.7277C21.0828 12.7656 21.142 12.8241 21.1809 12.8956C21.2331 12.9916 21.2452 13.1043 21.2146 13.2089C21.1839 13.3136 21.1131 13.4017 21.0176 13.4539Z" fill="#4F4F4F"/>
<path d="M30.5977 11.3461C30.3826 11.2809 30.1508 11.3041 29.9531 11.4104C29.7555 11.5168 29.6082 11.6977 29.5437 11.9132C29.3127 12.6843 29.9056 13.66 29.9056 13.66C29.9056 13.66 30.9355 13.1764 31.1665 12.4081C31.1991 12.3011 31.2101 12.1886 31.1991 12.0772C31.1881 11.9657 31.1552 11.8575 31.1023 11.7588C31.0494 11.6601 30.9776 11.5728 30.891 11.5019C30.8044 11.4311 30.7047 11.3782 30.5977 11.3461V11.3461ZM30.2515 12.5026C30.1737 12.4791 30.1046 12.4329 30.0529 12.37C30.0012 12.3071 29.9692 12.2302 29.961 12.1492C29.9528 12.0681 29.9687 11.9865 30.0068 11.9146C30.0448 11.8427 30.1033 11.7839 30.1748 11.7454C30.2463 11.707 30.3276 11.6907 30.4084 11.6987C30.4893 11.7067 30.566 11.7385 30.6289 11.7901C30.6918 11.8418 30.738 11.911 30.7618 11.9889C30.7855 12.0669 30.7857 12.1501 30.7623 12.228C30.7469 12.2798 30.7214 12.328 30.6874 12.3698C30.6534 12.4117 30.6114 12.4463 30.564 12.4718C30.5165 12.4973 30.4645 12.5132 30.4109 12.5185C30.3573 12.5237 30.3031 12.5184 30.2515 12.5026V12.5026Z" fill="white"/>
</svg>
