<svg width="213" height="213" viewBox="0 0 213 213" fill="none" xmlns="http://www.w3.org/2000/svg">
<path d="M168.625 0H44.375C19.8711 0 0 19.8711 0 44.375V168.625C0 193.129 19.8711 213 44.375 213H168.625C193.138 213 213 193.129 213 168.625V44.375C213 19.8711 193.138 0 168.625 0ZM71 168.625H44.375V71H71V168.625ZM57.6875 59.7465C49.1143 59.7465 42.1562 52.7352 42.1562 44.091C42.1562 35.4468 49.1143 28.4355 57.6875 28.4355C66.2607 28.4355 73.2188 35.4468 73.2188 44.091C73.2188 52.7352 66.2696 59.7465 57.6875 59.7465ZM177.5 168.625H150.875V118.889C150.875 88.9985 115.375 91.2616 115.375 118.889V168.625H88.75V71H115.375V86.6644C127.765 63.7136 177.5 62.0185 177.5 108.639V168.625Z" fill="#3382A9"/>
</svg>
