<svg width="191" height="186" viewBox="0 0 191 186" fill="none" xmlns="http://www.w3.org/2000/svg">
<path d="M95.5 0C42.7681 0 0 42.6934 0 95.3511C0 137.48 27.3607 173.221 65.314 185.831C70.0811 186.713 71.625 183.757 71.625 181.246V163.495C45.0601 169.264 39.529 152.244 39.529 152.244C35.1838 141.223 28.9206 138.291 28.9206 138.291C20.254 132.371 29.5811 132.498 29.5811 132.498C39.1709 133.166 44.2165 142.327 44.2165 142.327C52.7319 156.9 66.5555 152.689 72.007 150.249C72.8585 144.091 75.3336 139.88 78.0713 137.504C56.8623 135.081 34.563 126.904 34.563 90.3769C34.563 79.9598 38.2955 71.4577 44.3995 64.7831C43.4127 62.3755 40.1418 52.6735 45.3307 39.5469C45.3307 39.5469 53.3527 36.9883 71.6011 49.3203C79.2172 47.2067 87.3825 46.1499 95.5 46.1102C103.618 46.1499 111.791 47.2067 119.423 49.3203C137.655 36.9883 145.661 39.5469 145.661 39.5469C150.858 52.6815 147.587 62.3834 146.6 64.7831C152.728 71.4577 156.429 79.9678 156.429 90.3769C156.429 127 134.09 135.065 112.825 137.425C116.247 140.381 119.375 146.181 119.375 155.081V181.246C119.375 183.781 120.903 186.761 125.75 185.823C163.671 173.197 191 137.464 191 95.3511C191 42.6934 148.24 0 95.5 0Z" fill="#3382A9"/>
</svg>
