<svg width="191" height="191" viewBox="0 0 191 191" fill="none" xmlns="http://www.w3.org/2000/svg">
<g clip-path="url(#clip0)">
<path d="M95.5 17.2139C120.999 17.2139 124.023 17.3094 134.098 17.771C159.978 18.9488 172.067 31.2285 173.245 56.918C173.707 66.9853 173.794 70.0095 173.794 95.508C173.794 121.014 173.699 124.031 173.245 134.098C172.059 159.764 160.002 172.067 134.098 173.245C124.023 173.707 121.014 173.802 95.5 173.802C70.0015 173.802 66.9773 173.707 56.91 173.245C30.9659 172.059 18.9408 159.724 17.763 134.09C17.3014 124.023 17.2059 121.006 17.2059 95.5C17.2059 70.0015 17.3094 66.9853 17.763 56.91C18.9488 31.2285 31.0057 18.9408 56.91 17.763C66.9853 17.3094 70.0015 17.2139 95.5 17.2139ZM95.5 0C69.5638 0 66.3168 0.111417 56.1301 0.573C21.4477 2.16467 2.17263 21.4079 0.580958 56.1222C0.111417 66.3168 0 69.5638 0 95.5C0 121.436 0.111417 124.691 0.573 134.878C2.16467 169.56 21.4079 188.835 56.1222 190.427C66.3168 190.889 69.5638 191 95.5 191C121.436 191 124.691 190.889 134.878 190.427C169.528 188.835 188.851 169.592 190.419 134.878C190.889 124.691 191 121.436 191 95.5C191 69.5638 190.889 66.3168 190.427 56.1301C188.867 21.4795 169.6 2.17263 134.886 0.580958C124.691 0.111417 121.436 0 95.5 0V0ZM95.5 46.4608C68.4178 46.4608 46.4608 68.4178 46.4608 95.5C46.4608 122.582 68.4178 144.547 95.5 144.547C122.582 144.547 144.539 122.59 144.539 95.5C144.539 68.4178 122.582 46.4608 95.5 46.4608ZM95.5 127.333C77.92 127.333 63.6667 113.088 63.6667 95.5C63.6667 77.92 77.92 63.6667 95.5 63.6667C113.08 63.6667 127.333 77.92 127.333 95.5C127.333 113.088 113.08 127.333 95.5 127.333ZM146.481 33.0669C140.146 33.0669 135.013 38.2 135.013 44.5269C135.013 50.8537 140.146 55.9869 146.481 55.9869C152.808 55.9869 157.933 50.8537 157.933 44.5269C157.933 38.2 152.808 33.0669 146.481 33.0669Z" fill="#3382A9"/>
</g>
<defs>
<clipPath id="clip0">
<rect width="191" height="191" fill="white"/>
</clipPath>
</defs>
</svg>
