<svg width="80" height="57" viewBox="0 0 80 57" fill="none" xmlns="http://www.w3.org/2000/svg">
<path d="M1.16211 18.6094L1.68945 15.1816C1.86523 14.0098 2.17773 13.0527 2.62695 12.3105C3.07617 11.5684 3.86719 10.7578 5 9.87891C6.11328 8.98047 7.85156 7.71094 10.2148 6.07031C15.8984 2.10547 20.3223 0.123047 23.4863 0.123047C24.4434 0.123047 25.1172 0.318359 25.5078 0.708984C25.918 1.09961 26.123 1.7832 26.123 2.75977C26.123 3.44336 25.8594 4.38086 25.332 5.57227C24.8242 6.76367 23.877 8.64844 22.4902 11.2266C21.123 13.8047 19.9121 16.1191 18.8574 18.1699C17.998 19.8496 17.0215 21.6367 15.9277 23.5312C14.834 25.4062 14.1016 26.6953 13.7305 27.3984C13.3594 28.1016 13.1738 28.6289 13.1738 28.9805C13.1738 29.3711 13.3008 29.7129 13.5547 30.0059C13.8086 30.2793 14.1211 30.416 14.4922 30.416C15 30.416 15.5664 30.1426 16.1914 29.5957C16.8359 29.0488 18.0859 27.8672 19.9414 26.0508C20.8398 25.1523 21.7969 24.0879 22.8125 22.8574C23.8477 21.627 25.127 20.0449 26.6504 18.1113C28.1738 16.1777 29.5801 14.3809 30.8691 12.7207C31.6699 11.6855 32.3926 10.7578 33.0371 9.9375C33.6816 9.11719 34.2285 8.49219 34.6777 8.0625C35.1465 7.61328 35.5176 7.38867 35.791 7.38867C36.0254 7.38867 36.4062 7.68164 36.9336 8.26758L37.6367 9.17578C38.1641 9.91797 38.4277 10.4551 38.4277 10.7871C38.4277 11.1777 37.6953 12.6133 36.2305 15.0938C34.7852 17.5547 33.5547 19.6934 32.5391 21.5098C31.5234 23.3066 30.2051 25.9141 28.584 29.332C26.9824 32.7305 25.4395 36.5098 23.9551 40.6699C27.9199 37.6816 30.6348 35.6895 32.0996 34.6934C33.5645 33.6777 34.6289 33.1699 35.293 33.1699C35.7422 33.1699 35.9668 33.3555 35.9668 33.7266C35.9668 34.1367 35.752 34.6738 35.3223 35.3379C34.8926 35.9824 34.3164 36.7051 33.5938 37.5059C32.8711 38.2871 31.7773 39.4199 30.3125 40.9043C28.8672 42.4082 27.2852 44.0293 25.5664 45.7676C24.5117 46.8418 23.4863 48.0918 22.4902 49.5176C21.4941 50.9434 20.7227 52.0469 20.1758 52.8281C19.6289 53.6094 19.1309 54.0586 18.6816 54.1758C18.0176 54.3711 17.4121 54.2246 16.8652 53.7363C16.3184 53.248 16.0449 52.4766 16.0449 51.4219C16.0449 50.6797 16.416 49.1465 17.1582 46.8223C17.9199 44.498 19.0625 41.6074 20.5859 38.1504C21.4844 36.0801 22.4023 34.127 23.3398 32.291C24.2773 30.4355 25.3516 28.4043 26.5625 26.1973C27.793 23.9707 28.9941 21.8613 30.166 19.8691C31.3379 17.877 32.334 16.1777 33.1543 14.7715C31.2012 17.3301 29.2578 19.8203 27.3242 22.2422C25.4102 24.6445 23.2617 27.1836 20.8789 29.8594C18.5156 32.5156 16.123 35.0059 13.7012 37.3301C12.6465 38.3262 11.8848 39 11.416 39.3516C10.9668 39.7227 10.3711 39.9082 9.62891 39.9082C9.16016 39.9082 8.70117 39.7422 8.25195 39.4102C7.82227 39.0977 7.46094 38.6875 7.16797 38.1797C6.875 37.6523 6.72852 37.1445 6.72852 36.6562C6.72852 35.8359 6.8457 35.1133 7.08008 34.4883C7.33398 33.8633 7.76367 32.9258 8.36914 31.6758C11.0254 26.3047 12.959 22.623 14.1699 20.6309C18.5059 13.6777 20.6738 9.78125 20.6738 8.94141C20.6738 8.66797 20.5762 8.45312 20.3809 8.29688C20.1855 8.12109 19.9414 8.0332 19.6484 8.0332C19.1016 8.0332 18.4473 8.27734 17.6855 8.76562C16.9238 9.23438 15.9668 9.9375 14.8145 10.875C13.6621 11.8125 12.2559 12.9355 10.5957 14.2441C8.95508 15.5527 7.22656 16.8027 5.41016 17.9941C4.6875 18.4629 3.87695 19.0195 2.97852 19.6641C2.06055 20.3086 1.5332 20.6309 1.39648 20.6309C1.12305 20.6309 0.986328 20.4941 0.986328 20.2207C0.986328 19.9668 1.04492 19.4297 1.16211 18.6094Z" fill="white"/>
<path d="M42.7344 55.7871L41.709 54.8496C41.1035 54.2441 40.8008 53.5801 40.8008 52.8574C40.8008 52.1934 41.2598 51.1484 42.1777 49.7227C43.1152 48.3164 44.5312 46.6855 46.4258 44.8301C48.3203 42.9941 50.7129 41.0508 53.6035 39C56.5137 36.9688 59.8047 35.0254 63.4766 33.1699C63.2617 31.7441 62.8711 30.7871 62.3047 30.2988C61.7578 29.8105 60.8105 29.5664 59.4629 29.5664C58.3301 29.5664 56.3672 30.1621 53.5742 31.3535C50.7812 32.5254 48.3008 33.9902 46.1328 35.748C45.3125 36.4316 44.7363 36.7734 44.4043 36.7734C44.0137 36.7734 43.8184 36.4512 43.8184 35.8066C43.8184 34.7129 44.1309 33.4629 44.7559 32.0566C45.4004 30.6309 46.1816 29.5273 47.0996 28.7461C48.3691 27.6328 50.332 26.4707 52.9883 25.2598C55.8594 23.9121 58.4766 22.4375 60.8398 20.8359C63.2031 19.2148 65.0293 17.7109 66.3184 16.3242C67.627 14.9375 68.2812 13.8926 68.2812 13.1895C68.2812 12.4277 67.5391 12.0469 66.0547 12.0469C64.1406 12.0469 61.9043 12.4668 59.3457 13.3066C56.7871 14.1465 53.9355 15.4746 50.791 17.291C47.6465 19.0879 44.3555 21.3047 40.918 23.9414C41.0742 21.2266 41.3086 19.0781 41.6211 17.4961C41.9336 15.8945 42.4219 14.5957 43.0859 13.5996C43.75 12.6035 44.6191 11.7246 45.6934 10.9629C46.7676 10.2012 48.3789 9.22461 50.5273 8.0332C56.4258 4.71289 61.3672 3.05273 65.3516 3.05273C67.7734 3.05273 69.6875 3.64844 71.0938 4.83984C72.5 6.03125 73.2031 7.7207 73.2031 9.9082C73.2031 11.4316 72.8809 12.8379 72.2363 14.127C71.6113 15.416 70.6836 16.627 69.4531 17.7598C68.2422 18.8926 66.8164 19.957 65.1758 20.9531C63.5547 21.9492 61.5723 23.0234 59.2285 24.1758C61.8262 24.2734 63.7012 24.8496 64.8535 25.9043C66.0254 26.9395 66.7871 28.7852 67.1387 31.4414L70.9766 29.8301V32.0273L66.9629 33.9023C66.2012 37.2031 64.8242 40.25 62.832 43.043C60.8594 45.8359 58.6426 48.209 56.1816 50.1621C53.7402 52.1348 51.3867 53.6582 49.1211 54.7324C46.8555 55.8066 45.166 56.3438 44.0527 56.3438C43.584 56.3438 43.1445 56.1582 42.7344 55.7871ZM62.7148 36.1875C60.4297 37.1836 58.2129 38.4727 56.0645 40.0547C53.916 41.6562 52.0605 43.2383 50.498 44.8008C48.9355 46.3633 47.6465 47.8086 46.6309 49.1367C45.6348 50.4844 45.1367 51.3633 45.1367 51.7734C45.1367 52.1445 45.4102 52.3301 45.957 52.3301C46.8359 52.3301 48.4082 51.6367 50.6738 50.25C52.9395 48.8633 55.332 46.8125 57.8516 44.0977C59.5312 42.2812 60.6543 40.8262 61.2207 39.7324C61.8066 38.6582 62.3047 37.4766 62.7148 36.1875ZM75.2539 39.1172C74.9219 39.1172 74.6387 38.9902 74.4043 38.7363C74.1699 38.4824 74.0527 38.1309 74.0527 37.6816C74.0527 37.3301 74.2578 36.7051 74.668 35.8066C75.0977 34.8887 75.625 34.0781 76.25 33.375C76.8945 32.6523 77.5586 32.291 78.2422 32.291C79.082 32.291 79.502 32.7891 79.502 33.7852C79.502 34.332 79.2773 35.0449 78.8281 35.9238C78.3789 36.7832 77.8223 37.5352 77.1582 38.1797C76.4941 38.8047 75.8594 39.1172 75.2539 39.1172Z" fill="#3382A9"/>
</svg>
