<svg width="350" height="632" viewBox="0 0 350 632" fill="none" xmlns="http://www.w3.org/2000/svg">
<path id="me" d="M350 623.5C350 625.833 349.167 627.833 347.5 629.5C345.5 631.167 343.333 632 341 632L9.49997 632C7.16665 632 5.16666 631.167 3.49999 629.5C1.49998 627.833 0.49997 625.833 0.49997 623.5L0.49997 574.5C0.49997 571.167 2.16664 568.667 5.49999 567L131.5 491C132.167 490.667 133.167 489.833 134.5 488.5C135.833 486.833 136.5 484.833 136.5 482.5V481.5C136.5 479.167 135.833 477.5 134.5 476.5C132.833 475.167 131.667 474.333 131 474L5.99999 398.5C2.33331 396.167 0.49997 393.5 0.49997 390.5L0.49997 341C0.49997 338.667 1.49998 336.667 3.49999 335C5.16666 333.333 7.16665 332.5 9.49997 332.5L341 332.5C343.333 332.5 345.5 333.333 347.5 335C349.167 336.667 350 338.667 350 341V390C350 392.667 349.167 394.833 347.5 396.5C345.833 398.167 343.667 399 341 399H142.5C139.167 399 137.5 399.667 137.5 401C137.5 402.333 138.833 403.833 141.5 405.5L216 458C220.333 461 223.167 463.667 224.5 466C225.833 468 226.5 471.667 226.5 477V485.5C226.5 491.833 226 496.167 225 498.5C224 500.833 221.833 503.167 218.5 505.5L142 559.5C139 561.5 137.5 563 137.5 564C137.5 565.333 139 566 142 566L341 566C343.333 566 345.5 566.833 347.5 568.5C349.167 570.167 350 572.333 350 575V623.5ZM348.5 236.699C348.5 239.033 347.667 241.199 346 243.199C344 244.866 341.833 245.699 339.5 245.699L10 245.699C7.33332 245.699 5.16666 244.866 3.49999 243.199C1.83333 241.199 0.999993 239.033 0.999993 236.699L0.999993 12.6992C0.999993 10.0325 1.83333 7.86588 3.49999 6.19921C5.16666 4.53255 7.33332 3.69921 10 3.69921H52C54.3333 3.69921 56.5 4.53255 58.5 6.19921C60.1667 7.86588 61 10.0325 61 12.6992L61 174.199C61 176.533 61.8333 178.699 63.5 180.699C65.1667 182.366 67.3333 183.199 70 183.199L143.5 183.199H145C148 183.199 150.167 182.533 151.5 181.199C152.5 179.866 153 176.699 153 171.699V46.6992C153 44.3659 153.833 42.3659 155.5 40.6992C156.833 39.0325 158.667 38.1992 161 38.1992H203.5C205.833 38.1992 207.833 39.0325 209.5 40.6992C210.833 42.3659 211.5 44.3659 211.5 46.6992V172.199C211.5 176.533 212.833 179.533 215.5 181.199C217.833 182.533 220.333 183.199 223 183.199H276C279.333 183.199 282.167 182.366 284.5 180.699C286.833 178.699 288 174.866 288 169.199V9.1992C288 6.86588 289 4.86589 291 3.19922C292.667 1.19921 294.833 0.199199 297.5 0.199199H339.5C341.833 0.199199 344 1.03253 346 2.6992C347.667 4.36586 348.5 6.53253 348.5 9.1992V236.699Z" fill="#3382A9"/>
</svg>
