<svg width="26" height="31" viewBox="0 0 26 31" fill="none" xmlns="http://www.w3.org/2000/svg">
<path d="M25.9973 0.592843C25.997 0.578621 25.994 0.564527 25.9884 0.551048C25.9884 0.551048 25.9884 0.544779 25.9884 0.542689C25.9859 0.528789 25.9816 0.515137 25.9757 0.501939C25.9686 0.481416 25.9574 0.461997 25.9426 0.444472C25.9387 0.435566 25.9326 0.427396 25.9248 0.42044C25.9204 0.41418 25.9148 0.408537 25.9082 0.403722C25.8983 0.392466 25.8863 0.382588 25.8726 0.374466C25.8584 0.365169 25.8425 0.357764 25.8255 0.352524C25.7643 0.333729 25.6986 0.327427 25.6338 0.334162C25.569 0.340898 25.5072 0.360468 25.4537 0.391184L1.25784 11.8137C1.097 11.8998 0.963161 12.0158 0.867167 12.1523C0.771173 12.2889 0.715727 12.442 0.705327 12.5994V29.753C0.705002 29.809 0.723332 29.864 0.758335 29.9121C0.793337 29.9601 0.843682 29.9994 0.903925 30.0257L0.928113 30.0382C0.937266 30.0436 0.947081 30.0482 0.957394 30.0518C0.972286 30.0581 0.988128 30.0626 1.0045 30.0654C1.02745 30.0699 1.05092 30.0723 1.07452 30.0727C1.13925 30.0725 1.20265 30.0577 1.25784 30.0299L1.27184 30.0226L1.79889 29.7728L25.4474 18.5928C25.6083 18.5069 25.7422 18.3911 25.8382 18.2547C25.9342 18.1184 25.9896 17.9653 25.9999 17.8081V0.649266C26.0003 0.630434 25.9995 0.611596 25.9973 0.592843Z" fill="black"/>
<path d="M25.8177 0.349574C25.7566 0.330779 25.6908 0.324477 25.626 0.331213C25.5612 0.337948 25.4994 0.357518 25.446 0.388234L1.26024 11.8139C1.0994 11.9 0.965563 12.016 0.869569 12.1525C0.773575 12.289 0.71813 12.4422 0.707729 12.5996V13.262L0.00372314 12.9235V12.2715C0.0139316 12.1146 0.0690458 11.9619 0.164597 11.8257C0.260149 11.6896 0.393448 11.5738 0.553688 11.4879L24.747 0.0611908C24.804 0.0266828 24.8716 0.00586673 24.9422 0.00106923C25.0128 -0.00372827 25.0836 0.00768184 25.1468 0.0340242C25.2474 0.083133 25.7044 0.298376 25.8177 0.349574Z" fill="white"/>
<path d="M25.9999 0.645794C25.9999 0.359501 25.7516 0.244566 25.4486 0.387712L1.25783 11.8133C1.09693 11.8994 0.963032 12.0154 0.867029 12.1519C0.771026 12.2885 0.715623 12.4417 0.705322 12.5991V13.2626L25.9999 1.31451V0.645794Z" fill="white"/>
<g opacity="0.5">
<path opacity="0.5" d="M25.4487 0.38835L1.25784 11.814C1.09603 11.8976 0.962492 12.0133 0.869551 12.1504L0.168091 11.8171C0.258377 11.6817 0.389987 11.568 0.550011 11.4869L24.7447 0.0613065C24.8018 0.0269641 24.8694 0.00633419 24.94 0.00172137C25.0106 -0.00289146 25.0814 0.00869443 25.1444 0.0351848C25.2437 0.0842935 25.702 0.298491 25.8179 0.348645C25.7571 0.33 25.6916 0.32387 25.6273 0.330791C25.5629 0.337713 25.5016 0.357476 25.4487 0.38835Z" fill="white"/>
</g>
<path opacity="0.15" d="M0 12.9247V12.2696C0.00813672 12.1095 0.0659861 11.9537 0.168059 11.8171L0.87085 12.1494C0.769586 12.285 0.712989 12.4398 0.70661 12.5987V13.2622L0 12.9247Z" fill="black"/>
<path opacity="0.9" d="M0.903198 30.0279L0.87392 30.0144L0.292169 29.7354C0.214885 29.6986 0.148813 29.6479 0.0989655 29.5871C0.0491178 29.5263 0.016804 29.4569 0.00447598 29.3843C0.00257702 29.3624 0.00257702 29.3404 0.00447598 29.3185V12.9141L0.709706 13.2536V29.7531C0.708903 29.8045 0.724307 29.8552 0.754421 29.9002C0.784534 29.9453 0.828332 29.9831 0.881558 30.0102C0.887189 30.014 0.893144 30.0175 0.899379 30.0206L0.903198 30.0279Z" fill="white"/>
<g opacity="0.5">
<path opacity="0.5" d="M4.63139 12.6171L9.6943 10.2202C9.77068 10.1836 9.83179 10.2098 9.83179 10.2766C9.82849 10.3148 9.81433 10.3518 9.79046 10.3846C9.76658 10.4175 9.73364 10.4452 9.6943 10.4657L4.63266 12.869C4.55628 12.9045 4.4939 12.8794 4.4939 12.8115C4.49652 12.7725 4.51034 12.7345 4.53423 12.7008C4.55813 12.667 4.59142 12.6383 4.63139 12.6171Z" fill="#BA68C8"/>
<path opacity="0.5" d="M6.88974 14.524L16.7117 9.86497C16.7881 9.82945 16.8505 9.85453 16.8505 9.92244C16.847 9.96055 16.8327 9.99745 16.8086 10.0301C16.7844 10.0628 16.7513 10.0904 16.7117 10.1105L6.88974 14.7706C6.81336 14.8061 6.75098 14.7811 6.75098 14.7132C6.75451 14.6749 6.76891 14.6379 6.793 14.6051C6.8171 14.5722 6.85023 14.5445 6.88974 14.524Z" fill="#BA68C8"/>
<path opacity="0.5" d="M10.229 9.96633L16.7957 6.86204C16.8721 6.82652 16.9344 6.8516 16.9344 6.91951C16.931 6.95762 16.9167 6.99452 16.8925 7.02721C16.8684 7.05989 16.8352 7.08743 16.7957 7.10759L10.229 10.2119C10.1539 10.2474 10.0916 10.2223 10.0916 10.1544C10.0949 10.1164 10.1092 10.0796 10.133 10.0469C10.1569 10.0143 10.1898 9.98667 10.229 9.96633Z" fill="#BA68C8"/>
<path opacity="0.5" d="M4.63138 13.3236L6.99918 12.2014C7.07556 12.1648 7.13794 12.1909 7.13794 12.2588C7.13441 12.2969 7.12001 12.3338 7.0959 12.3665C7.0718 12.3991 7.03866 12.4267 6.99918 12.4469L4.63266 13.5691C4.55627 13.6057 4.4939 13.5796 4.4939 13.5116C4.49748 13.4737 4.51177 13.4369 4.53563 13.4043C4.55949 13.3717 4.59227 13.344 4.63138 13.3236Z" fill="#BA68C8"/>
<path opacity="0.6" d="M4.63138 13.3236L6.99918 12.2014C7.07556 12.1648 7.13794 12.1909 7.13794 12.2588C7.13441 12.2969 7.12001 12.3338 7.0959 12.3665C7.0718 12.3991 7.03866 12.4267 6.99918 12.4469L4.63266 13.5691C4.55627 13.6057 4.4939 13.5796 4.4939 13.5116C4.49748 13.4737 4.51177 13.4369 4.53563 13.4043C4.55949 13.3717 4.59227 13.344 4.63138 13.3236Z" fill="white"/>
<path opacity="0.5" d="M4.63139 14.0251L5.89554 13.4289C5.97192 13.3934 6.0343 13.4185 6.0343 13.4864C6.03077 13.5246 6.01637 13.5615 5.99228 13.5944C5.96818 13.6272 5.93505 13.6549 5.89554 13.6753L4.63266 14.2705C4.55628 14.306 4.4939 14.2809 4.4939 14.2131C4.49729 14.1751 4.5115 14.1383 4.53537 14.1057C4.55925 14.073 4.59214 14.0454 4.63139 14.0251Z" fill="#BA68C8"/>
<path opacity="0.6" d="M4.63139 14.0251L5.89554 13.4289C5.97192 13.3934 6.0343 13.4185 6.0343 13.4864C6.03077 13.5246 6.01637 13.5615 5.99228 13.5944C5.96818 13.6272 5.93505 13.6549 5.89554 13.6753L4.63266 14.2705C4.55628 14.306 4.4939 14.2809 4.4939 14.2131C4.49729 14.1751 4.5115 14.1383 4.53537 14.1057C4.55925 14.073 4.59214 14.0454 4.63139 14.0251Z" fill="white"/>
<path opacity="0.5" d="M7.53532 11.9477L13.5698 9.09102C13.6462 9.05445 13.7073 9.08057 13.7073 9.14849C13.704 9.1865 13.6898 9.22334 13.6659 9.25602C13.642 9.2887 13.6091 9.31629 13.5698 9.33657L7.53532 12.1932C7.45894 12.2298 7.39783 12.2037 7.39783 12.1358C7.40102 12.0977 7.41514 12.0609 7.43904 12.0282C7.46294 11.9955 7.49593 11.9679 7.53532 11.9477Z" fill="#BA68C8"/>
<path opacity="0.6" d="M7.53532 11.9477L13.5698 9.09102C13.6462 9.05445 13.7073 9.08057 13.7073 9.14849C13.704 9.1865 13.6898 9.22334 13.6659 9.25602C13.642 9.2887 13.6091 9.31629 13.5698 9.33657L7.53532 12.1932C7.45894 12.2298 7.39783 12.2037 7.39783 12.1358C7.40102 12.0977 7.41514 12.0609 7.43904 12.0282C7.46294 11.9955 7.49593 11.9679 7.53532 11.9477Z" fill="white"/>
<path opacity="0.5" d="M10.5027 15.3359L16.7957 12.3518C16.8721 12.3163 16.9344 12.3413 16.9344 12.4093C16.9309 12.4475 16.9165 12.4845 16.8924 12.5173C16.8683 12.5502 16.8352 12.5779 16.7957 12.5984L10.5027 15.5815C10.4263 15.618 10.3652 15.5919 10.3652 15.5251C10.3685 15.4869 10.3827 15.4499 10.4066 15.4171C10.4304 15.3842 10.4634 15.3564 10.5027 15.3359Z" fill="#FFA8A7"/>
<path opacity="0.5" d="M10.5027 14.635L16.7957 11.6477C16.8721 11.6111 16.9344 11.6372 16.9344 11.7041C16.9309 11.7423 16.9165 11.7794 16.8924 11.8122C16.8683 11.845 16.8352 11.8728 16.7957 11.8932L10.5027 14.8805C10.4263 14.9171 10.3652 14.891 10.3652 14.8231C10.3685 14.785 10.3827 14.7482 10.4066 14.7155C10.4305 14.6828 10.4634 14.6552 10.5027 14.635Z" fill="#FFA8A7"/>
<path opacity="0.5" d="M6.33737 13.2265L9.07442 11.9204C9.15081 11.8838 9.21191 11.9099 9.21191 11.9778C9.20842 12.0158 9.19418 12.0526 9.17031 12.0852C9.14644 12.1179 9.1136 12.1455 9.07442 12.1659L6.33737 13.4678C6.26099 13.5033 6.19861 13.4783 6.19861 13.4103C6.20281 13.373 6.21753 13.3369 6.24161 13.305C6.26569 13.2731 6.29847 13.2462 6.33737 13.2265Z" fill="#BA68C8"/>
<path opacity="0.6" d="M6.33737 13.2265L9.07442 11.9204C9.15081 11.8838 9.21191 11.9099 9.21191 11.9778C9.20842 12.0158 9.19418 12.0526 9.17031 12.0852C9.14644 12.1179 9.1136 12.1455 9.07442 12.1659L6.33737 13.4678C6.26099 13.5033 6.19861 13.4783 6.19861 13.4103C6.20281 13.373 6.21753 13.3369 6.24161 13.305C6.26569 13.2731 6.29847 13.2462 6.33737 13.2265Z" fill="white"/>
<path opacity="0.5" d="M9.61032 11.6662L16.7141 8.33101C16.7905 8.29444 16.8529 8.32056 16.8529 8.38848C16.8494 8.42657 16.835 8.46344 16.8109 8.49611C16.7868 8.52878 16.7536 8.55634 16.7141 8.57656L9.61032 11.9118C9.53394 11.9473 9.47156 11.9222 9.47156 11.8543C9.47499 11.8162 9.48935 11.7793 9.51346 11.7466C9.53758 11.7139 9.57077 11.6864 9.61032 11.6662Z" fill="#BA68C8"/>
<path opacity="0.6" d="M9.61032 11.6662L16.7141 8.33101C16.7905 8.29444 16.8529 8.32056 16.8529 8.38848C16.8494 8.42657 16.835 8.46344 16.8109 8.49611C16.7868 8.52878 16.7536 8.55634 16.7141 8.57656L9.61032 11.9118C9.53394 11.9473 9.47156 11.9222 9.47156 11.8543C9.47499 11.8162 9.48935 11.7793 9.51346 11.7466C9.53758 11.7139 9.57077 11.6864 9.61032 11.6662Z" fill="white"/>
<path opacity="0.5" d="M6.33737 13.9757L9.07186 12.6738C9.14825 12.6372 9.20935 12.6633 9.20935 12.7313C9.20606 12.7693 9.19189 12.8061 9.16801 12.8388C9.14412 12.8715 9.11118 12.8991 9.07186 12.9193L6.33737 14.2212C6.26099 14.2567 6.19861 14.2317 6.19861 14.1638C6.20204 14.1256 6.2164 14.0887 6.24051 14.0561C6.26463 14.0234 6.29782 13.9958 6.33737 13.9757Z" fill="#BA68C8"/>
<path opacity="0.6" d="M6.33737 13.9757L9.07186 12.6738C9.14825 12.6372 9.20935 12.6633 9.20935 12.7313C9.20606 12.7693 9.19189 12.8061 9.16801 12.8388C9.14412 12.8715 9.11118 12.8991 9.07186 12.9193L6.33737 14.2212C6.26099 14.2567 6.19861 14.2317 6.19861 14.1638C6.20204 14.1256 6.2164 14.0887 6.24051 14.0561C6.26463 14.0234 6.29782 13.9958 6.33737 13.9757Z" fill="white"/>
<path opacity="0.5" d="M9.61032 12.4194L16.7141 9.08419C16.7905 9.04762 16.8529 9.07374 16.8529 9.14165C16.8494 9.17974 16.835 9.21661 16.8109 9.24928C16.7868 9.28195 16.7536 9.30951 16.7141 9.32973L9.61032 12.6649C9.53394 12.7005 9.47156 12.6754 9.47156 12.6075C9.47499 12.5694 9.48935 12.5325 9.51346 12.4998C9.53758 12.4671 9.57077 12.4396 9.61032 12.4194Z" fill="#BA68C8"/>
<path opacity="0.6" d="M9.61032 12.4194L16.7141 9.08419C16.7905 9.04762 16.8529 9.07374 16.8529 9.14165C16.8494 9.17974 16.835 9.21661 16.8109 9.24928C16.7868 9.28195 16.7536 9.30951 16.7141 9.32973L9.61032 12.6649C9.53394 12.7005 9.47156 12.6754 9.47156 12.6075C9.47499 12.5694 9.48935 12.5325 9.51346 12.4998C9.53758 12.4671 9.57077 12.4396 9.61032 12.4194Z" fill="white"/>
<path opacity="0.5" d="M10.5027 16.0476L16.7957 13.0813C16.8721 13.0447 16.9344 13.0708 16.9344 13.1387C16.9309 13.1768 16.9165 13.2137 16.8924 13.2464C16.8683 13.279 16.8352 13.3066 16.7957 13.3268L10.5027 16.2932C10.4263 16.3298 10.3652 16.3047 10.3652 16.2368C10.3685 16.1986 10.3827 16.1616 10.4066 16.1288C10.4304 16.0959 10.4634 16.0681 10.5027 16.0476Z" fill="#F28F8F"/>
<path opacity="0.5" d="M10.5027 16.7495L16.7957 13.7832C16.8721 13.7466 16.9344 13.7727 16.9344 13.8406C16.9309 13.8787 16.9165 13.9156 16.8924 13.9483C16.8683 13.9809 16.8352 14.0085 16.7957 14.0287L10.5027 16.9961C10.4263 17.0317 10.3652 17.0066 10.3652 16.9387C10.3685 16.9005 10.3827 16.8635 10.4066 16.8307C10.4304 16.7978 10.4634 16.77 10.5027 16.7495Z" fill="#F28F8F"/>
<path opacity="0.5" d="M10.5027 17.4529L16.7957 14.4865C16.8721 14.45 16.9344 14.4761 16.9344 14.544C16.9309 14.5821 16.9165 14.619 16.8924 14.6516C16.8683 14.6843 16.8352 14.7119 16.7957 14.7321L10.5027 17.6995C10.4263 17.735 10.3652 17.7099 10.3652 17.642C10.3685 17.6039 10.3827 17.5669 10.4066 17.534C10.4304 17.5012 10.4634 17.4734 10.5027 17.4529Z" fill="#F28F8F"/>
<path opacity="0.5" d="M10.5027 18.3867L16.7957 15.4204C16.8721 15.3838 16.9344 15.4099 16.9344 15.4778C16.9309 15.5159 16.9165 15.5528 16.8924 15.5855C16.8683 15.6181 16.8352 15.6457 16.7957 15.6659L10.5027 18.6312C10.4263 18.6678 10.3652 18.6417 10.3652 18.5738C10.3686 18.5359 10.3828 18.4993 10.4067 18.4668C10.4306 18.4343 10.4635 18.4068 10.5027 18.3867Z" fill="#BA68C8"/>
<path opacity="0.5" d="M4.26469 21.3444L5.53775 20.7378C5.61413 20.7023 5.67651 20.7273 5.67651 20.7952C5.67308 20.8333 5.65872 20.8701 5.63461 20.9028C5.61049 20.9355 5.5773 20.963 5.53775 20.9831L4.26469 21.5898C4.18958 21.6263 4.1272 21.6002 4.1272 21.5323C4.13078 21.4944 4.14507 21.4577 4.16893 21.4251C4.1928 21.3925 4.22558 21.3648 4.26469 21.3444Z" fill="#BA68C8"/>
<path opacity="0.6" d="M4.26469 21.3444L5.53775 20.7378C5.61413 20.7023 5.67651 20.7273 5.67651 20.7952C5.67308 20.8333 5.65872 20.8701 5.63461 20.9028C5.61049 20.9355 5.5773 20.963 5.53775 20.9831L4.26469 21.5898C4.18958 21.6263 4.1272 21.6002 4.1272 21.5323C4.13078 21.4944 4.14507 21.4577 4.16893 21.4251C4.1928 21.3925 4.22558 21.3648 4.26469 21.3444Z" fill="white"/>
<path opacity="0.5" d="M4.26469 21.9808L5.53775 21.3742C5.61413 21.3377 5.67651 21.3638 5.67651 21.4316C5.67298 21.4697 5.65858 21.5065 5.63447 21.5392C5.61037 21.5718 5.57723 21.5994 5.53775 21.6196L4.26469 22.2262C4.18958 22.2617 4.1272 22.2367 4.1272 22.1688C4.13059 22.1308 4.1448 22.094 4.16868 22.0614C4.19255 22.0288 4.22544 22.0012 4.26469 21.9808Z" fill="#BA68C8"/>
<path opacity="0.6" d="M4.26469 21.9808L5.53775 21.3742C5.61413 21.3377 5.67651 21.3638 5.67651 21.4316C5.67298 21.4697 5.65858 21.5065 5.63447 21.5392C5.61037 21.5718 5.57723 21.5994 5.53775 21.6196L4.26469 22.2262C4.18958 22.2617 4.1272 22.2367 4.1272 22.1688C4.13059 22.1308 4.1448 22.094 4.16868 22.0614C4.19255 22.0288 4.22544 22.0012 4.26469 21.9808Z" fill="white"/>
<path opacity="0.5" d="M10.5027 19.0271L16.7957 16.0388C16.8721 16.0033 16.9344 16.0284 16.9344 16.0963C16.931 16.1344 16.9167 16.1713 16.8925 16.204C16.8684 16.2366 16.8352 16.2642 16.7957 16.2843L10.5027 19.2727C10.4263 19.3092 10.3652 19.2831 10.3652 19.2152C10.3684 19.1772 10.3825 19.1403 10.4064 19.1076C10.4303 19.0749 10.4633 19.0473 10.5027 19.0271Z" fill="#FFA8A7"/>
<path opacity="0.5" d="M6.38444 25.5849L9.6943 24.0176C9.77068 23.982 9.83179 24.0071 9.83179 24.075C9.82849 24.1132 9.81433 24.1502 9.79046 24.183C9.76658 24.2159 9.73364 24.2437 9.6943 24.2642L6.38444 25.8314C6.30805 25.868 6.24695 25.8419 6.24695 25.774C6.25004 25.7358 6.26412 25.6987 6.28801 25.6659C6.31191 25.633 6.34495 25.6052 6.38444 25.5849Z" fill="#BA68C8"/>
<path opacity="0.5" d="M10.229 23.7576L16.7957 20.6606C16.8721 20.6251 16.9344 20.6502 16.9344 20.7181C16.9309 20.7563 16.9165 20.7933 16.8924 20.8262C16.8683 20.859 16.8352 20.8868 16.7957 20.9072L10.229 24.0042C10.1539 24.0397 10.0916 24.0146 10.0916 23.9467C10.0951 23.9086 10.1094 23.8717 10.1333 23.8389C10.1571 23.8061 10.1899 23.7783 10.229 23.7576Z" fill="#BA68C8"/>
<path opacity="0.5" d="M4.26469 26.5841L5.53775 25.9775C5.61413 25.9409 5.67651 25.967 5.67651 26.0349C5.67298 26.073 5.65858 26.1098 5.63447 26.1425C5.61037 26.1751 5.57723 26.2027 5.53775 26.2229L4.26469 26.8295C4.18958 26.865 4.1272 26.8399 4.1272 26.7721C4.13059 26.7341 4.1448 26.6973 4.16868 26.6647C4.19255 26.632 4.22544 26.6044 4.26469 26.5841Z" fill="#BA68C8"/>
<path opacity="0.6" d="M4.26469 26.5841L5.53775 25.9775C5.61413 25.9409 5.67651 25.967 5.67651 26.0349C5.67298 26.073 5.65858 26.1098 5.63447 26.1425C5.61037 26.1751 5.57723 26.2027 5.53775 26.2229L4.26469 26.8295C4.18958 26.865 4.1272 26.8399 4.1272 26.7721C4.13059 26.7341 4.1448 26.6973 4.16868 26.6647C4.19255 26.632 4.22544 26.6044 4.26469 26.5841Z" fill="white"/>
<path opacity="0.5" d="M4.26469 27.2199L5.53775 26.6133C5.61413 26.5778 5.67651 26.6028 5.67651 26.6707C5.67308 26.7088 5.65872 26.7456 5.63461 26.7783C5.61049 26.811 5.5773 26.8385 5.53775 26.8586L4.26469 27.4653C4.18958 27.5018 4.1272 27.4757 4.1272 27.4078C4.13078 27.3699 4.14507 27.3332 4.16893 27.3006C4.1928 27.2679 4.22558 27.2403 4.26469 27.2199Z" fill="#BA68C8"/>
<path opacity="0.6" d="M4.26469 27.2199L5.53775 26.6133C5.61413 26.5778 5.67651 26.6028 5.67651 26.6707C5.67308 26.7088 5.65872 26.7456 5.63461 26.7783C5.61049 26.811 5.5773 26.8385 5.53775 26.8586L4.26469 27.4653C4.18958 27.5018 4.1272 27.4757 4.1272 27.4078C4.13078 27.3699 4.14507 27.3332 4.16893 27.3006C4.1928 27.2679 4.22558 27.2403 4.26469 27.2199Z" fill="white"/>
<path opacity="0.5" d="M10.7625 24.1359L16.7957 21.2793C16.8721 21.2427 16.9344 21.2688 16.9344 21.3367C16.9309 21.3748 16.9165 21.4117 16.8924 21.4443C16.8683 21.477 16.8352 21.5046 16.7957 21.5248L10.7625 24.3815C10.6862 24.418 10.6238 24.3919 10.6238 24.324C10.6272 24.2859 10.6416 24.249 10.6657 24.2163C10.6898 24.1836 10.723 24.1561 10.7625 24.1359Z" fill="#FFA8A7"/>
<path opacity="0.5" d="M6.33737 22.5164L16.793 17.5742C16.8694 17.5387 16.9318 17.5638 16.9318 17.6317C16.9282 17.6699 16.9138 17.7069 16.8897 17.7398C16.8656 17.7726 16.8325 17.8003 16.793 17.8208L6.33737 22.763C6.26099 22.7985 6.19861 22.7735 6.19861 22.7055C6.20214 22.6673 6.21654 22.6303 6.24063 22.5975C6.26473 22.5646 6.29786 22.5369 6.33737 22.5164Z" fill="#BA68C8"/>
<path opacity="0.5" d="M4.26469 23.493L5.53775 22.8864C5.61413 22.8499 5.67651 22.876 5.67651 22.9438C5.67298 22.9819 5.65858 23.0187 5.63447 23.0514C5.61037 23.084 5.57723 23.1116 5.53775 23.1318L4.26469 23.7384C4.18958 23.775 4.1272 23.7489 4.1272 23.681C4.13059 23.643 4.1448 23.6062 4.16868 23.5736C4.19255 23.541 4.22544 23.5134 4.26469 23.493Z" fill="#BA68C8"/>
<path opacity="0.6" d="M4.26469 23.493L5.53775 22.8864C5.61413 22.8499 5.67651 22.876 5.67651 22.9438C5.67298 22.9819 5.65858 23.0187 5.63447 23.0514C5.61037 23.084 5.57723 23.1116 5.53775 23.1318L4.26469 23.7384C4.18958 23.775 4.1272 23.7489 4.1272 23.681C4.13059 23.643 4.1448 23.6062 4.16868 23.5736C4.19255 23.541 4.22544 23.5134 4.26469 23.493Z" fill="white"/>
<path opacity="0.5" d="M6.33737 23.211L16.793 18.2688C16.8694 18.2333 16.9318 18.2583 16.9318 18.3263C16.9283 18.3644 16.914 18.4013 16.8899 18.4339C16.8657 18.4666 16.8326 18.4942 16.793 18.5143L6.33737 23.4565C6.26099 23.4931 6.19861 23.467 6.19861 23.3991C6.20234 23.361 6.21682 23.3242 6.24091 23.2916C6.26499 23.2589 6.29802 23.2313 6.33737 23.211Z" fill="#BA68C8"/>
<path opacity="0.5" d="M4.26469 24.1972L5.53775 23.5905C5.61413 23.554 5.67651 23.5801 5.67651 23.6479C5.67308 23.686 5.65872 23.7229 5.63461 23.7556C5.61049 23.7882 5.5773 23.8158 5.53775 23.8359L4.26469 24.4425C4.18958 24.4791 4.1272 24.453 4.1272 24.3851C4.13059 24.3471 4.1448 24.3104 4.16868 24.2777C4.19255 24.2451 4.22544 24.2175 4.26469 24.1972Z" fill="#BA68C8"/>
<path opacity="0.6" d="M4.26469 24.1972L5.53775 23.5905C5.61413 23.554 5.67651 23.5801 5.67651 23.6479C5.67308 23.686 5.65872 23.7229 5.63461 23.7556C5.61049 23.7882 5.5773 23.8158 5.53775 23.8359L4.26469 24.4425C4.18958 24.4791 4.1272 24.453 4.1272 24.3851C4.13059 24.3471 4.1448 24.3104 4.16868 24.2777C4.19255 24.2451 4.22544 24.2175 4.26469 24.1972Z" fill="white"/>
<path opacity="0.5" d="M6.33737 23.9172L16.7957 18.9729C16.8721 18.9374 16.9344 18.9624 16.9344 19.0304C16.931 19.0685 16.9167 19.1054 16.8925 19.138C16.8684 19.1707 16.8352 19.1983 16.7957 19.2184L6.33737 24.1627C6.26099 24.1993 6.19861 24.1732 6.19861 24.1053C6.20214 24.0672 6.21654 24.0303 6.24065 23.9977C6.26475 23.965 6.29789 23.9374 6.33737 23.9172Z" fill="#F28F8F"/>
<path opacity="0.5" d="M4.26469 24.8993L5.53775 24.2927C5.61413 24.2561 5.67651 24.2822 5.67651 24.3501C5.67308 24.3882 5.65872 24.425 5.63461 24.4577C5.61049 24.4904 5.5773 24.5179 5.53775 24.538L4.26469 25.1446C4.18958 25.1812 4.1272 25.1551 4.1272 25.0872C4.13078 25.0493 4.14507 25.0126 4.16893 24.98C4.1928 24.9473 4.22558 24.9197 4.26469 24.8993Z" fill="#BA68C8"/>
<path opacity="0.6" d="M4.26469 24.8993L5.53775 24.2927C5.61413 24.2561 5.67651 24.2822 5.67651 24.3501C5.67308 24.3882 5.65872 24.425 5.63461 24.4577C5.61049 24.4904 5.5773 24.5179 5.53775 24.538L4.26469 25.1446C4.18958 25.1812 4.1272 25.1551 4.1272 25.0872C4.13078 25.0493 4.14507 25.0126 4.16893 24.98C4.1928 24.9473 4.22558 24.9197 4.26469 24.8993Z" fill="white"/>
<g opacity="0.6">
<path opacity="0.6" d="M2.2728 22.8043L3.0288 22.4482C3.10389 22.4127 3.16498 22.442 3.16498 22.513V22.7395C3.1625 22.7784 3.14888 22.8163 3.12521 22.85C3.10155 22.8837 3.06852 22.9124 3.0288 22.9337L2.27662 23.2898C2.20153 23.3253 2.14044 23.2971 2.14044 23.225V22.9985C2.14259 22.9599 2.15567 22.9222 2.17865 22.8885C2.20162 22.8548 2.23386 22.826 2.2728 22.8043Z" fill="white"/>
<path opacity="0.6" d="M2.27122 23.7061L3.02737 23.3501C3.10247 23.3146 3.16357 23.3438 3.16357 23.4148V23.6414C3.1611 23.6803 3.14747 23.7181 3.1238 23.7518C3.10013 23.7856 3.06709 23.8143 3.02737 23.8356L2.27122 24.1958C2.19611 24.2313 2.13501 24.2031 2.13501 24.1311V23.9045C2.137 23.865 2.15038 23.8264 2.17406 23.7919C2.19773 23.7574 2.23103 23.728 2.27122 23.7061Z" fill="white"/>
<path opacity="0.6" d="M2.27047 24.6149L3.02673 24.2536C3.10185 24.2181 3.16296 24.2474 3.16296 24.3184V24.5449C3.16049 24.5838 3.14686 24.6217 3.12319 24.6554C3.09951 24.6892 3.06647 24.7179 3.02673 24.7392L2.27429 25.0952C2.19917 25.1307 2.13806 25.1025 2.13806 25.0305V24.8039C2.14135 24.7662 2.15497 24.7297 2.1779 24.697C2.20083 24.6642 2.23247 24.6362 2.27047 24.6149Z" fill="white"/>
<path opacity="0.6" d="M2.27047 25.5125L3.02673 25.1565C3.10185 25.121 3.16296 25.1502 3.16296 25.2212V25.4509C3.1599 25.4892 3.146 25.5265 3.12235 25.5596C3.09871 25.5928 3.06597 25.621 3.02673 25.642L2.27429 25.998C2.19917 26.0335 2.13806 26.0053 2.13806 25.9333V25.7067C2.14041 25.6682 2.15357 25.6306 2.17654 25.5969C2.19951 25.5632 2.23165 25.5343 2.27047 25.5125Z" fill="white"/>
</g>
<path opacity="0.5" d="M4.26469 17.5023L5.53775 16.8957C5.61413 16.8592 5.67651 16.8853 5.67651 16.9531C5.67298 16.9912 5.65858 17.028 5.63447 17.0607C5.61037 17.0933 5.57723 17.1209 5.53775 17.1411L4.26469 17.7477C4.18958 17.7832 4.1272 17.7581 4.1272 17.6903C4.13059 17.6523 4.1448 17.6155 4.16868 17.5829C4.19255 17.5502 4.22544 17.5226 4.26469 17.5023Z" fill="#BA68C8"/>
<path opacity="0.6" d="M4.26469 17.5023L5.53775 16.8957C5.61413 16.8592 5.67651 16.8853 5.67651 16.9531C5.67298 16.9912 5.65858 17.028 5.63447 17.0607C5.61037 17.0933 5.57723 17.1209 5.53775 17.1411L4.26469 17.7477C4.18958 17.7832 4.1272 17.7581 4.1272 17.6903C4.13059 17.6523 4.1448 17.6155 4.16868 17.5829C4.19255 17.5502 4.22544 17.5226 4.26469 17.5023Z" fill="white"/>
<path opacity="0.5" d="M4.26469 19.0143L5.53775 18.4077C5.61413 18.3711 5.67651 18.3972 5.67651 18.4651C5.67308 18.5032 5.65872 18.54 5.63461 18.5727C5.61049 18.6054 5.5773 18.6329 5.53775 18.653L4.26469 19.2596C4.18958 19.2962 4.1272 19.2701 4.1272 19.2022C4.13059 19.1643 4.1448 19.1275 4.16868 19.0948C4.19255 19.0622 4.22544 19.0346 4.26469 19.0143Z" fill="#BA68C8"/>
<path opacity="0.6" d="M4.26469 19.0143L5.53775 18.4077C5.61413 18.3711 5.67651 18.3972 5.67651 18.4651C5.67308 18.5032 5.65872 18.54 5.63461 18.5727C5.61049 18.6054 5.5773 18.6329 5.53775 18.653L4.26469 19.2596C4.18958 19.2962 4.1272 19.2701 4.1272 19.2022C4.13059 19.1643 4.1448 19.1275 4.16868 19.0948C4.19255 19.0622 4.22544 19.0346 4.26469 19.0143Z" fill="white"/>
<path opacity="0.5" d="M4.26469 19.7177L5.53775 19.111C5.61413 19.0745 5.67651 19.1006 5.67651 19.1685C5.67308 19.2065 5.65872 19.2434 5.63461 19.2761C5.61049 19.3087 5.5773 19.3363 5.53775 19.3564L4.26469 19.963C4.18958 19.9996 4.1272 19.9735 4.1272 19.9056C4.13059 19.8676 4.1448 19.8309 4.16868 19.7982C4.19255 19.7656 4.22544 19.738 4.26469 19.7177Z" fill="#BA68C8"/>
<path opacity="0.6" d="M4.26469 19.7177L5.53775 19.111C5.61413 19.0745 5.67651 19.1006 5.67651 19.1685C5.67308 19.2065 5.65872 19.2434 5.63461 19.2761C5.61049 19.3087 5.5773 19.3363 5.53775 19.3564L4.26469 19.963C4.18958 19.9996 4.1272 19.9735 4.1272 19.9056C4.13059 19.8676 4.1448 19.8309 4.16868 19.7982C4.19255 19.7656 4.22544 19.738 4.26469 19.7177Z" fill="white"/>
<path opacity="0.5" d="M4.26469 20.4208L5.53775 19.8142C5.61413 19.7776 5.67651 19.8037 5.67651 19.8716C5.67308 19.9097 5.65872 19.9465 5.63461 19.9792C5.61049 20.0119 5.5773 20.0394 5.53775 20.0595L4.26469 20.6662C4.18958 20.7027 4.1272 20.6766 4.1272 20.6087C4.13078 20.5708 4.14507 20.5341 4.16893 20.5015C4.1928 20.4688 4.22558 20.4412 4.26469 20.4208Z" fill="#BA68C8"/>
<path opacity="0.6" d="M4.26469 20.4208L5.53775 19.8142C5.61413 19.7776 5.67651 19.8037 5.67651 19.8716C5.67308 19.9097 5.65872 19.9465 5.63461 19.9792C5.61049 20.0119 5.5773 20.0394 5.53775 20.0595L4.26469 20.6662C4.18958 20.7027 4.1272 20.6766 4.1272 20.6087C4.13078 20.5708 4.14507 20.5341 4.16893 20.5015C4.1928 20.4688 4.22558 20.4412 4.26469 20.4208Z" fill="white"/>
<g opacity="0.6">
<path opacity="0.6" d="M2.27049 18.326L3.02684 17.9699C3.10197 17.9344 3.16309 17.9637 3.16309 18.0347V18.2613C3.16061 18.3001 3.14698 18.338 3.1233 18.3717C3.09963 18.4055 3.06658 18.4342 3.02684 18.4555L2.27431 18.8115C2.19918 18.847 2.13806 18.8188 2.13806 18.7468V18.5202C2.14041 18.4816 2.15358 18.4441 2.17655 18.4104C2.19952 18.3767 2.23167 18.3478 2.27049 18.326Z" fill="white"/>
<path opacity="0.6" d="M2.27047 19.2281L3.02673 18.8679C3.10185 18.8324 3.16296 18.8616 3.16296 18.9326V19.1592C3.16128 19.1988 3.14803 19.2375 3.12432 19.272C3.10062 19.3065 3.06715 19.3359 3.02673 19.3576L2.27429 19.7136C2.19917 19.7491 2.13806 19.7209 2.13806 19.6489V19.4223C2.14041 19.3838 2.15357 19.3462 2.17654 19.3125C2.19951 19.2788 2.23165 19.2499 2.27047 19.2281Z" fill="white"/>
<path opacity="0.6" d="M2.27047 20.1317L3.02673 19.7756C3.10185 19.7401 3.16296 19.7693 3.16296 19.8403V20.0669C3.16049 20.1058 3.14686 20.1436 3.12319 20.1774C3.09951 20.2111 3.06647 20.2398 3.02673 20.2611L2.27429 20.6172C2.19917 20.6527 2.13806 20.6245 2.13806 20.5524V20.3311C2.13943 20.2916 2.15213 20.253 2.17514 20.2184C2.19815 20.1837 2.23081 20.154 2.27047 20.1317Z" fill="white"/>
<path opacity="0.6" d="M2.27047 21.0347L3.02673 20.6787C3.10185 20.6432 3.16296 20.6724 3.16296 20.7434V20.97C3.16108 21.0094 3.14773 21.0479 3.12404 21.0822C3.10034 21.1165 3.06698 21.1457 3.02673 21.1673L2.27429 21.5234C2.19917 21.5589 2.13806 21.5307 2.13806 21.4586V21.2321C2.13982 21.193 2.15271 21.1548 2.17571 21.1205C2.1987 21.0862 2.23115 21.0569 2.27047 21.0347Z" fill="white"/>
<path opacity="0.6" d="M2.27047 27.2825L3.02673 26.9265C3.10185 26.891 3.16296 26.9202 3.16296 26.9912V27.2178C3.16049 27.2567 3.14686 27.2945 3.12319 27.3283C3.09951 27.362 3.06647 27.3907 3.02673 27.412L2.27429 27.7681C2.19917 27.8036 2.13806 27.7754 2.13806 27.7033V27.4767C2.14021 27.4382 2.1533 27.4005 2.17628 27.3668C2.19927 27.3331 2.23152 27.3042 2.27047 27.2825Z" fill="white"/>
<path opacity="0.6" d="M2.27047 28.1854L3.02673 27.8293C3.10185 27.7938 3.16296 27.8231 3.16296 27.8941V28.1206C3.16049 28.1595 3.14686 28.1974 3.12319 28.2311C3.09951 28.2648 3.06647 28.2935 3.02673 28.3148L2.27429 28.6709C2.19917 28.7064 2.13806 28.6782 2.13806 28.6061V28.3764C2.14098 28.3384 2.15442 28.3015 2.17736 28.2684C2.2003 28.2353 2.23215 28.2069 2.27047 28.1854Z" fill="white"/>
</g>
<g opacity="0.6">
<path opacity="0.6" d="M2.27049 13.8529L3.02684 13.4917C3.10197 13.4562 3.16309 13.4854 3.16309 13.5564V13.783C3.16061 13.8219 3.14698 13.8597 3.1233 13.8935C3.09963 13.9272 3.06658 13.9559 3.02684 13.9772L2.27431 14.3332C2.19918 14.3687 2.13806 14.3405 2.13806 14.2685V14.0419C2.14135 14.0043 2.15497 13.9677 2.1779 13.935C2.20083 13.9023 2.23248 13.8742 2.27049 13.8529Z" fill="white"/>
<path opacity="0.6" d="M2.27047 14.7501L3.02673 14.394C3.10185 14.3585 3.16296 14.3878 3.16296 14.4588V14.6885C3.1599 14.7268 3.146 14.764 3.12235 14.7972C3.09871 14.8303 3.06597 14.8585 3.02673 14.8795L2.27429 15.2356C2.19917 15.2711 2.13806 15.2429 2.13806 15.1708V14.9443C2.14041 14.9057 2.15357 14.8681 2.17654 14.8344C2.19951 14.8008 2.23165 14.7719 2.27047 14.7501Z" fill="white"/>
<path opacity="0.6" d="M2.27047 15.6536L3.02673 15.2976C3.10185 15.2621 3.16296 15.2913 3.16296 15.3623V15.5889C3.16049 15.6278 3.14686 15.6656 3.12319 15.6994C3.09951 15.7331 3.06647 15.7618 3.02673 15.7831L2.27429 16.1391C2.19917 16.1746 2.13806 16.1464 2.13806 16.0744V15.8478C2.14041 15.8093 2.15357 15.7717 2.17654 15.738C2.19951 15.7043 2.23165 15.6754 2.27047 15.6536Z" fill="white"/>
<path opacity="0.6" d="M2.27047 16.5562L3.02673 16.2002C3.10185 16.1647 3.16296 16.1939 3.16296 16.2649V16.4915C3.16049 16.5303 3.14686 16.5682 3.12319 16.6019C3.09951 16.6357 3.06647 16.6644 3.02673 16.6857L2.27429 17.0417C2.19917 17.0772 2.13806 17.049 2.13806 16.977V16.7504C2.14041 16.7119 2.15357 16.6743 2.17654 16.6406C2.19951 16.6069 2.23165 16.578 2.27047 16.5562Z" fill="white"/>
</g>
<path opacity="0.5" d="M24.3628 10.0363L18.5945 12.7707C18.4816 12.8309 18.3876 12.9122 18.3201 13.0079C18.2526 13.1036 18.2136 13.2109 18.2062 13.3213V20.4515C18.2062 20.6542 18.3806 20.7367 18.5945 20.6354L24.3628 17.902C24.4746 17.8412 24.5674 17.7597 24.6338 17.6641C24.7001 17.5684 24.7381 17.4613 24.7448 17.3514V10.2202C24.7499 10.0174 24.5767 9.9349 24.3628 10.0363Z" fill="#37474F"/>
<path opacity="0.5" d="M23.8268 15.456L23.296 15.7076C23.2401 15.7365 23.1932 15.7757 23.1591 15.8221C23.1251 15.8685 23.1048 15.9209 23.1 15.9749C23.1 16.071 23.1878 16.1075 23.296 16.0564L23.8268 15.8037C23.8827 15.7751 23.9296 15.7361 23.9637 15.6898C23.9977 15.6435 24.018 15.5913 24.0228 15.5374C24.0228 15.4414 23.935 15.4048 23.8268 15.456Z" fill="#BA68C8"/>
<path opacity="0.6" d="M23.8268 15.456L23.296 15.7076C23.2401 15.7365 23.1932 15.7757 23.1591 15.8221C23.1251 15.8685 23.1048 15.9209 23.1 15.9749C23.1 16.071 23.1878 16.1075 23.296 16.0564L23.8268 15.8037C23.8827 15.7751 23.9296 15.7361 23.9637 15.6898C23.9977 15.6435 24.018 15.5913 24.0228 15.5374C24.0228 15.4414 23.935 15.4048 23.8268 15.456Z" fill="white"/>
<path opacity="0.5" d="M23.8268 10.9789L23.296 11.2306C23.2401 11.2594 23.1932 11.2986 23.1591 11.345C23.1251 11.3915 23.1048 11.4438 23.1 11.4979C23.1 11.5939 23.1878 11.6305 23.296 11.5793L23.8268 11.3277C23.8827 11.2988 23.9296 11.2596 23.9637 11.2132C23.9977 11.1668 24.018 11.1144 24.0228 11.0604C24.0228 10.9643 23.935 10.9278 23.8268 10.9789Z" fill="#BA68C8"/>
<path opacity="0.6" d="M23.8268 10.9789L23.296 11.2306C23.2401 11.2594 23.1932 11.2986 23.1591 11.345C23.1251 11.3915 23.1048 11.4438 23.1 11.4979C23.1 11.5939 23.1878 11.6305 23.296 11.5793L23.8268 11.3277C23.8827 11.2988 23.9296 11.2596 23.9637 11.2132C23.9977 11.1668 24.018 11.1144 24.0228 11.0604C24.0228 10.9643 23.935 10.9278 23.8268 10.9789Z" fill="white"/>
<path opacity="0.5" d="M23.0808 12.2262L22.5497 12.4779C22.4936 12.5066 22.4466 12.5457 22.4126 12.5922C22.3785 12.6386 22.3583 12.6911 22.3536 12.7451C22.3536 12.8412 22.4415 12.8777 22.5497 12.8266L23.0808 12.5739C23.1367 12.5453 23.1836 12.5063 23.2177 12.46C23.2517 12.4138 23.272 12.3616 23.2769 12.3077C23.2769 12.2106 23.189 12.1751 23.0808 12.2262Z" fill="#BA68C8"/>
<path opacity="0.6" d="M23.0808 12.2262L22.5497 12.4779C22.4936 12.5066 22.4466 12.5457 22.4126 12.5922C22.3785 12.6386 22.3583 12.6911 22.3536 12.7451C22.3536 12.8412 22.4415 12.8777 22.5497 12.8266L23.0808 12.5739C23.1367 12.5453 23.1836 12.5063 23.2177 12.46C23.2517 12.4138 23.272 12.3616 23.2769 12.3077C23.2769 12.2106 23.189 12.1751 23.0808 12.2262Z" fill="white"/>
<path opacity="0.5" d="M23.0808 13.1218L22.5497 13.3745C22.4938 13.4031 22.4469 13.4421 22.4128 13.4884C22.3788 13.5346 22.3585 13.5868 22.3536 13.6407C22.3536 13.7368 22.4415 13.7733 22.5497 13.7222L23.0808 13.4706C23.1367 13.4417 23.1836 13.4025 23.2177 13.3561C23.2517 13.3097 23.272 13.2573 23.2769 13.2033C23.2769 13.1041 23.189 13.0675 23.0808 13.1218Z" fill="#BA68C8"/>
<path opacity="0.6" d="M23.0808 13.1218L22.5497 13.3745C22.4938 13.4031 22.4469 13.4421 22.4128 13.4884C22.3788 13.5346 22.3585 13.5868 22.3536 13.6407C22.3536 13.7368 22.4415 13.7733 22.5497 13.7222L23.0808 13.4706C23.1367 13.4417 23.1836 13.4025 23.2177 13.3561C23.2517 13.3097 23.272 13.2573 23.2769 13.2033C23.2769 13.1041 23.189 13.0675 23.0808 13.1218Z" fill="white"/>
<path opacity="0.5" d="M23.8268 13.6642L23.296 13.9169C23.2401 13.9455 23.1932 13.9845 23.1591 14.0308C23.1251 14.0771 23.1048 14.1293 23.1 14.1832C23.1 14.2792 23.1878 14.3158 23.296 14.2646L23.8268 14.013C23.8827 13.9841 23.9296 13.9449 23.9637 13.8985C23.9977 13.8521 24.018 13.7997 24.0228 13.7457C24.0228 13.6496 23.935 13.6131 23.8268 13.6642Z" fill="#BA68C8"/>
<path opacity="0.6" d="M23.8268 13.6642L23.296 13.9169C23.2401 13.9455 23.1932 13.9845 23.1591 14.0308C23.1251 14.0771 23.1048 14.1293 23.1 14.1832C23.1 14.2792 23.1878 14.3158 23.296 14.2646L23.8268 14.013C23.8827 13.9841 23.9296 13.9449 23.9637 13.8985C23.9977 13.8521 24.018 13.7997 24.0228 13.7457C24.0228 13.6496 23.935 13.6131 23.8268 13.6642Z" fill="white"/>
<path opacity="0.5" d="M23.0808 14.9128L22.5497 15.1644C22.4936 15.1931 22.4466 15.2323 22.4126 15.2788C22.3785 15.3252 22.3583 15.3776 22.3536 15.4317C22.3536 15.5278 22.4415 15.5643 22.5497 15.5131L23.0808 15.2605C23.1367 15.2319 23.1836 15.1929 23.2177 15.1466C23.2517 15.1003 23.272 15.0481 23.2769 14.9942C23.2769 14.8982 23.189 14.8616 23.0808 14.9128Z" fill="#BA68C8"/>
<path opacity="0.6" d="M23.0808 14.9128L22.5497 15.1644C22.4936 15.1931 22.4466 15.2323 22.4126 15.2788C22.3785 15.3252 22.3583 15.3776 22.3536 15.4317C22.3536 15.5278 22.4415 15.5643 22.5497 15.5131L23.0808 15.2605C23.1367 15.2319 23.1836 15.1929 23.2177 15.1466C23.2517 15.1003 23.272 15.0481 23.2769 14.9942C23.2769 14.8982 23.189 14.8616 23.0808 14.9128Z" fill="white"/>
<path opacity="0.5" d="M22.378 11.6684L19.1304 13.2054C19.0743 13.2341 19.0273 13.2733 18.9932 13.3198C18.9592 13.3663 18.939 13.4188 18.9343 13.4729C18.9343 13.569 19.0222 13.6056 19.1304 13.5544L22.378 12.0174C22.434 11.9885 22.4809 11.9493 22.5149 11.9028C22.549 11.8564 22.5693 11.804 22.5741 11.7499C22.569 11.659 22.4812 11.6172 22.378 11.6684Z" fill="#BA68C8"/>
<path opacity="0.8" d="M22.378 11.6684L19.1304 13.2054C19.0743 13.2341 19.0273 13.2733 18.9932 13.3198C18.9592 13.3663 18.939 13.4188 18.9343 13.4729C18.9343 13.569 19.0222 13.6056 19.1304 13.5544L22.378 12.0174C22.434 11.9885 22.4809 11.9493 22.5149 11.9028C22.549 11.8564 22.5693 11.804 22.5741 11.7499C22.569 11.659 22.4812 11.6172 22.378 11.6684Z" fill="white"/>
<path opacity="0.5" d="M22.378 16.1459L19.1355 17.6829C19.0798 17.7117 19.0331 17.7508 18.9993 17.7971C18.9655 17.8433 18.9454 17.8955 18.9407 17.9494C18.9407 18.0455 19.0285 18.0821 19.1367 18.0309L22.378 16.4939C22.434 16.4652 22.4809 16.4262 22.5149 16.3799C22.549 16.3336 22.5693 16.2814 22.5741 16.2274C22.569 16.1302 22.4812 16.0947 22.378 16.1459Z" fill="#BA68C8"/>
<path opacity="0.8" d="M22.378 16.1459L19.1355 17.6829C19.0798 17.7117 19.0331 17.7508 18.9993 17.7971C18.9655 17.8433 18.9454 17.8955 18.9407 17.9494C18.9407 18.0455 19.0285 18.0821 19.1367 18.0309L22.378 16.4939C22.434 16.4652 22.4809 16.4262 22.5149 16.3799C22.549 16.3336 22.5693 16.2814 22.5741 16.2274C22.569 16.1302 22.4812 16.0947 22.378 16.1459Z" fill="white"/>
<path opacity="0.5" d="M21.6271 12.9127L19.1304 14.0986C19.0743 14.1273 19.0273 14.1666 18.9932 14.213C18.9592 14.2595 18.939 14.312 18.9343 14.3661C18.9343 14.4622 19.0222 14.4988 19.1304 14.4466L21.6271 13.2617C21.683 13.2328 21.7299 13.1936 21.7639 13.1471C21.798 13.1007 21.8183 13.0483 21.8231 12.9942C21.8231 12.9002 21.7416 12.8636 21.6271 12.9127Z" fill="#BA68C8"/>
<path opacity="0.8" d="M21.6271 12.9127L19.1304 14.0986C19.0743 14.1273 19.0273 14.1666 18.9932 14.213C18.9592 14.2595 18.939 14.312 18.9343 14.3661C18.9343 14.4622 19.0222 14.4988 19.1304 14.4466L21.6271 13.2617C21.683 13.2328 21.7299 13.1936 21.7639 13.1471C21.798 13.1007 21.8183 13.0483 21.8231 12.9942C21.8231 12.9002 21.7416 12.8636 21.6271 12.9127Z" fill="white"/>
<path opacity="0.5" d="M21.6271 13.8103L19.1304 14.9962C19.0745 15.0248 19.0276 15.0639 18.9935 15.1101C18.9594 15.1564 18.9392 15.2087 18.9343 15.2626C18.9343 15.3598 19.0222 15.3953 19.1304 15.3441L21.6271 14.1592C21.683 14.1304 21.7299 14.0912 21.7639 14.0447C21.798 13.9982 21.8183 13.9458 21.8231 13.8918C21.8231 13.7956 21.7416 13.7591 21.6271 13.8103Z" fill="#BA68C8"/>
<path opacity="0.8" d="M21.6271 13.8103L19.1304 14.9962C19.0745 15.0248 19.0276 15.0639 18.9935 15.1101C18.9594 15.1564 18.9392 15.2087 18.9343 15.2626C18.9343 15.3598 19.0222 15.3953 19.1304 15.3441L21.6271 14.1592C21.683 14.1304 21.7299 14.0912 21.7639 14.0447C21.798 13.9982 21.8183 13.9458 21.8231 13.8918C21.8231 13.7956 21.7416 13.7591 21.6271 13.8103Z" fill="white"/>
<path opacity="0.5" d="M22.378 14.3549L19.1355 15.8919C19.0796 15.9206 19.0327 15.9596 18.9986 16.0059C18.9646 16.0522 18.9443 16.1044 18.9395 16.1584C18.9395 16.2556 19.0273 16.2911 19.1355 16.2399L22.378 14.7029C22.434 14.6743 22.4809 14.6352 22.5149 14.5889C22.549 14.5426 22.5693 14.4904 22.5741 14.4364C22.569 14.3403 22.4812 14.3037 22.378 14.3549Z" fill="#BA68C8"/>
<path opacity="0.8" d="M22.378 14.3549L19.1355 15.8919C19.0796 15.9206 19.0327 15.9596 18.9986 16.0059C18.9646 16.0522 18.9443 16.1044 18.9395 16.1584C18.9395 16.2556 19.0273 16.2911 19.1355 16.2399L22.378 14.7029C22.434 14.6743 22.4809 14.6352 22.5149 14.5889C22.549 14.5426 22.5693 14.4904 22.5741 14.4364C22.569 14.3403 22.4812 14.3037 22.378 14.3549Z" fill="white"/>
<path opacity="0.5" d="M21.6271 15.6018L19.1304 16.7877C19.0745 16.8163 19.0276 16.8553 18.9935 16.9016C18.9594 16.9479 18.9392 17.0002 18.9343 17.0541C18.9343 17.1502 19.0222 17.1868 19.1304 17.1356L21.6271 15.9507C21.6831 15.922 21.7301 15.8828 21.7642 15.8363C21.7983 15.7898 21.8185 15.7374 21.8231 15.6833C21.8231 15.5871 21.7416 15.5506 21.6271 15.6018Z" fill="#BA68C8"/>
<path opacity="0.8" d="M21.6271 15.6018L19.1304 16.7877C19.0745 16.8163 19.0276 16.8553 18.9935 16.9016C18.9594 16.9479 18.9392 17.0002 18.9343 17.0541C18.9343 17.1502 19.0222 17.1868 19.1304 17.1356L21.6271 15.9507C21.6831 15.922 21.7301 15.8828 21.7642 15.8363C21.7983 15.7898 21.8185 15.7374 21.8231 15.6833C21.8231 15.5871 21.7416 15.5506 21.6271 15.6018Z" fill="white"/>
<path opacity="0.5" d="M23.8268 17.2562L23.296 17.5099C23.2401 17.5388 23.1932 17.578 23.1591 17.6244C23.1251 17.6709 23.1048 17.7232 23.1 17.7772C23.1 17.8733 23.1878 17.9098 23.296 17.8587L23.8268 17.607C23.8827 17.5782 23.9296 17.539 23.9637 17.4926C23.9977 17.4461 24.018 17.3938 24.0228 17.3398C24.0228 17.2416 23.935 17.2051 23.8268 17.2562Z" fill="#BA68C8"/>
<path opacity="0.6" d="M23.8268 17.2562L23.296 17.5099C23.2401 17.5388 23.1932 17.578 23.1591 17.6244C23.1251 17.6709 23.1048 17.7232 23.1 17.7772C23.1 17.8733 23.1878 17.9098 23.296 17.8587L23.8268 17.607C23.8827 17.5782 23.9296 17.539 23.9637 17.4926C23.9977 17.4461 24.018 17.3938 24.0228 17.3398C24.0228 17.2416 23.935 17.2051 23.8268 17.2562Z" fill="white"/>
<path opacity="0.5" d="M23.0808 16.7133L22.5497 16.965C22.4938 16.9938 22.4469 17.033 22.4128 17.0794C22.3788 17.1259 22.3585 17.1782 22.3536 17.2322C22.3536 17.3283 22.4415 17.3648 22.5497 17.3137L23.0808 17.061C23.1367 17.0324 23.1836 16.9934 23.2177 16.9471C23.2517 16.9009 23.272 16.8487 23.2769 16.7948C23.2769 16.6987 23.189 16.6622 23.0808 16.7133Z" fill="#BA68C8"/>
<path opacity="0.6" d="M23.0808 16.7133L22.5497 16.965C22.4938 16.9938 22.4469 17.033 22.4128 17.0794C22.3788 17.1259 22.3585 17.1782 22.3536 17.2322C22.3536 17.3283 22.4415 17.3648 22.5497 17.3137L23.0808 17.061C23.1367 17.0324 23.1836 16.9934 23.2177 16.9471C23.2517 16.9009 23.272 16.8487 23.2769 16.7948C23.2769 16.6987 23.189 16.6622 23.0808 16.7133Z" fill="white"/>
<path opacity="0.5" d="M22.378 17.946L19.1355 19.483C19.0796 19.5116 19.0327 19.5507 18.9986 19.5969C18.9646 19.6432 18.9443 19.6955 18.9395 19.7494C18.9395 19.8466 19.0273 19.8821 19.1355 19.8309L22.378 18.2939C22.4322 18.2654 22.4776 18.2269 22.5107 18.1816C22.5438 18.1363 22.5637 18.0854 22.569 18.0327C22.569 17.9282 22.4811 17.8948 22.378 17.946Z" fill="#BA68C8"/>
<path opacity="0.8" d="M22.378 17.946L19.1355 19.483C19.0796 19.5116 19.0327 19.5507 18.9986 19.5969C18.9646 19.6432 18.9443 19.6955 18.9395 19.7494C18.9395 19.8466 19.0273 19.8821 19.1355 19.8309L22.378 18.2939C22.4322 18.2654 22.4776 18.2269 22.5107 18.1816C22.5438 18.1363 22.5637 18.0854 22.569 18.0327C22.569 17.9282 22.4811 17.8948 22.378 17.946Z" fill="white"/>
<path opacity="0.5" d="M21.6271 17.4056L19.1304 18.5905C19.0743 18.6192 19.0273 18.6584 18.9932 18.7049C18.9592 18.7514 18.939 18.8039 18.9343 18.858C18.9343 18.9541 19.0222 18.9907 19.1304 18.9384L21.6271 17.7504C21.683 17.7218 21.7299 17.6827 21.7639 17.6365C21.798 17.5902 21.8183 17.5379 21.8231 17.484C21.8231 17.3868 21.7416 17.3513 21.6271 17.4056Z" fill="#BA68C8"/>
<path opacity="0.8" d="M21.6271 17.4056L19.1304 18.5905C19.0743 18.6192 19.0273 18.6584 18.9932 18.7049C18.9592 18.7514 18.939 18.8039 18.9343 18.858C18.9343 18.9541 19.0222 18.9907 19.1304 18.9384L21.6271 17.7504C21.683 17.7218 21.7299 17.6827 21.7639 17.6365C21.798 17.5902 21.8183 17.5379 21.8231 17.484C21.8231 17.3868 21.7416 17.3513 21.6271 17.4056Z" fill="white"/>
<path opacity="0.5" d="M24.3619 2.70262L18.5935 5.43599C18.4806 5.49626 18.3866 5.57754 18.3191 5.67321C18.2517 5.76888 18.2126 5.87626 18.2052 5.98663V11.4502C18.2052 11.654 18.3796 11.7355 18.5935 11.6341L24.3619 8.90077C24.4736 8.83997 24.5665 8.75846 24.6328 8.66281C24.6991 8.56716 24.7372 8.46005 24.7438 8.35012V2.88233C24.7489 2.68381 24.5757 2.60126 24.3619 2.70262Z" fill="#37474F"/>
<path opacity="0.5" d="M23.8268 8.12104L23.296 8.37371C23.2401 8.40231 23.1932 8.44133 23.1591 8.4876C23.1251 8.53386 23.1048 8.58606 23.1 8.63996C23.1 8.73602 23.1878 8.77256 23.296 8.7214L23.8268 8.46977C23.8827 8.44094 23.9296 8.40173 23.9637 8.3553C23.9977 8.30887 24.018 8.25652 24.0228 8.20248C24.0228 8.10642 23.935 8.06988 23.8268 8.12104Z" fill="#BA68C8"/>
<path opacity="0.6" d="M23.8268 8.12104L23.296 8.37371C23.2401 8.40231 23.1932 8.44133 23.1591 8.4876C23.1251 8.53386 23.1048 8.58606 23.1 8.63996C23.1 8.73602 23.1878 8.77256 23.296 8.7214L23.8268 8.46977C23.8827 8.44094 23.9296 8.40173 23.9637 8.3553C23.9977 8.30887 24.018 8.25652 24.0228 8.20248C24.0228 8.10642 23.935 8.06988 23.8268 8.12104Z" fill="white"/>
<path opacity="0.5" d="M23.8268 3.64447L23.296 3.8961C23.2401 3.92493 23.1932 3.96415 23.1591 4.01058C23.1251 4.05701 23.1048 4.10936 23.1 4.16339C23.1 4.25945 23.1878 4.296 23.296 4.24483L23.8268 3.99216C23.8827 3.96356 23.9296 3.92454 23.9637 3.87828C23.9977 3.83202 24.018 3.77981 24.0228 3.72592C24.0228 3.62986 23.935 3.59331 23.8268 3.64447Z" fill="#BA68C8"/>
<path opacity="0.6" d="M23.8268 3.64447L23.296 3.8961C23.2401 3.92493 23.1932 3.96415 23.1591 4.01058C23.1251 4.05701 23.1048 4.10936 23.1 4.16339C23.1 4.25945 23.1878 4.296 23.296 4.24483L23.8268 3.99216C23.8827 3.96356 23.9296 3.92454 23.9637 3.87828C23.9977 3.83202 24.018 3.77981 24.0228 3.72592C24.0228 3.62986 23.935 3.59331 23.8268 3.64447Z" fill="white"/>
<path opacity="0.5" d="M23.0808 4.89109L22.5497 5.14376C22.4938 5.17236 22.4469 5.21138 22.4128 5.25764C22.3788 5.3039 22.3585 5.35611 22.3536 5.41C22.3536 5.50606 22.4415 5.54261 22.5497 5.49145L23.0808 5.23982C23.1369 5.21088 23.1839 5.17151 23.218 5.12488C23.252 5.07826 23.2722 5.0257 23.2769 4.97148C23.2769 4.87647 23.189 4.83993 23.0808 4.89109Z" fill="#BA68C8"/>
<path opacity="0.6" d="M23.0808 4.89109L22.5497 5.14376C22.4938 5.17236 22.4469 5.21138 22.4128 5.25764C22.3788 5.3039 22.3585 5.35611 22.3536 5.41C22.3536 5.50606 22.4415 5.54261 22.5497 5.49145L23.0808 5.23982C23.1369 5.21088 23.1839 5.17151 23.218 5.12488C23.252 5.07826 23.2722 5.0257 23.2769 4.97148C23.2769 4.87647 23.189 4.83993 23.0808 4.89109Z" fill="white"/>
<path opacity="0.5" d="M23.0808 5.78486L22.5497 6.03648C22.4938 6.06531 22.4469 6.10452 22.4128 6.15095C22.3788 6.19739 22.3585 6.24973 22.3536 6.30377C22.3536 6.39983 22.4415 6.43637 22.5497 6.38521L23.0808 6.13358C23.1367 6.10475 23.1836 6.06554 23.2177 6.01911C23.2517 5.97268 23.272 5.92033 23.2769 5.86629C23.2769 5.77024 23.189 5.73369 23.0808 5.78486Z" fill="#BA68C8"/>
<path opacity="0.6" d="M23.0808 5.78486L22.5497 6.03648C22.4938 6.06531 22.4469 6.10452 22.4128 6.15095C22.3788 6.19739 22.3585 6.24973 22.3536 6.30377C22.3536 6.39983 22.4415 6.43637 22.5497 6.38521L23.0808 6.13358C23.1367 6.10475 23.1836 6.06554 23.2177 6.01911C23.2517 5.97268 23.272 5.92033 23.2769 5.86629C23.2769 5.77024 23.189 5.73369 23.0808 5.78486Z" fill="white"/>
<path opacity="0.5" d="M23.8268 6.33018L23.296 6.58181C23.2396 6.61095 23.1924 6.65065 23.1583 6.69766C23.1242 6.74468 23.1042 6.79765 23.1 6.85224C23.1 6.94829 23.1878 6.98484 23.296 6.93368L23.8268 6.68204C23.8827 6.65315 23.9295 6.61392 23.9635 6.5675C23.9976 6.52109 24.0179 6.46877 24.0228 6.41475C24.0228 6.31556 23.935 6.27901 23.8268 6.33018Z" fill="#BA68C8"/>
<path opacity="0.6" d="M23.8268 6.33018L23.296 6.58181C23.2396 6.61095 23.1924 6.65065 23.1583 6.69766C23.1242 6.74468 23.1042 6.79765 23.1 6.85224C23.1 6.94829 23.1878 6.98484 23.296 6.93368L23.8268 6.68204C23.8827 6.65315 23.9295 6.61392 23.9635 6.5675C23.9976 6.52109 24.0179 6.46877 24.0228 6.41475C24.0228 6.31556 23.935 6.27901 23.8268 6.33018Z" fill="white"/>
<path opacity="0.5" d="M23.0808 7.57758L22.5497 7.82921C22.4939 7.8581 22.447 7.89733 22.413 7.94375C22.3789 7.99017 22.3586 8.04249 22.3536 8.0965C22.3536 8.19256 22.4415 8.22911 22.5497 8.17795L23.0808 7.92631C23.1367 7.89748 23.1836 7.85827 23.2177 7.81184C23.2517 7.76541 23.272 7.71306 23.2769 7.65902C23.2769 7.56296 23.189 7.52642 23.0808 7.57758Z" fill="#BA68C8"/>
<path opacity="0.6" d="M23.0808 7.57758L22.5497 7.82921C22.4939 7.8581 22.447 7.89733 22.413 7.94375C22.3789 7.99017 22.3586 8.04249 22.3536 8.0965C22.3536 8.19256 22.4415 8.22911 22.5497 8.17795L23.0808 7.92631C23.1367 7.89748 23.1836 7.85827 23.2177 7.81184C23.2517 7.76541 23.272 7.71306 23.2769 7.65902C23.2769 7.56296 23.189 7.52642 23.0808 7.57758Z" fill="white"/>
<path opacity="0.5" d="M22.378 4.33439L19.1304 5.87139C19.0756 5.9006 19.03 5.9399 18.997 5.98616C18.9641 6.03242 18.9448 6.08436 18.9407 6.13783C18.9407 6.23396 19.0285 6.27053 19.1367 6.21933L22.378 4.68233C22.434 4.65371 22.4809 4.61467 22.5149 4.56837C22.549 4.52207 22.5693 4.46983 22.5741 4.41589C22.569 4.31872 22.4812 4.2832 22.378 4.33439Z" fill="#BA68C8"/>
<path opacity="0.8" d="M22.378 4.33439L19.1304 5.87139C19.0756 5.9006 19.03 5.9399 18.997 5.98616C18.9641 6.03242 18.9448 6.08436 18.9407 6.13783C18.9407 6.23396 19.0285 6.27053 19.1367 6.21933L22.378 4.68233C22.434 4.65371 22.4809 4.61467 22.5149 4.56837C22.549 4.52207 22.5693 4.46983 22.5741 4.41589C22.569 4.31872 22.4812 4.2832 22.378 4.33439Z" fill="white"/>
<path opacity="0.5" d="M22.378 8.81124L19.1355 10.3482C19.0799 10.3771 19.0334 10.4162 18.9996 10.4625C18.9657 10.5088 18.9456 10.5609 18.9407 10.6147C18.9407 10.7108 19.0285 10.7474 19.1367 10.6962L22.378 9.16023C22.434 9.13138 22.4809 9.09214 22.5149 9.04567C22.549 8.99921 22.5693 8.94682 22.5741 8.89274C22.569 8.79661 22.4812 8.76004 22.378 8.81124Z" fill="#BA68C8"/>
<path opacity="0.8" d="M22.378 8.81124L19.1355 10.3482C19.0799 10.3771 19.0334 10.4162 18.9996 10.4625C18.9657 10.5088 18.9456 10.5609 18.9407 10.6147C18.9407 10.7108 19.0285 10.7474 19.1367 10.6962L22.378 9.16023C22.434 9.13138 22.4809 9.09214 22.5149 9.04567C22.549 8.99921 22.5693 8.94682 22.5741 8.89274C22.569 8.79661 22.4812 8.76004 22.378 8.81124Z" fill="white"/>
<path opacity="0.5" d="M21.6271 5.58102L19.1304 6.7659C19.0757 6.79539 19.0301 6.8349 18.9972 6.88132C18.9642 6.92773 18.9449 6.97979 18.9407 7.03339C18.9407 7.12951 19.0285 7.16608 19.1367 7.11489L21.6271 5.93C21.683 5.90115 21.7299 5.86191 21.7639 5.81544C21.798 5.76898 21.8183 5.71659 21.8231 5.66251C21.8231 5.56639 21.7416 5.52982 21.6271 5.58102Z" fill="#BA68C8"/>
<path opacity="0.8" d="M21.6271 5.58102L19.1304 6.7659C19.0757 6.79539 19.0301 6.8349 18.9972 6.88132C18.9642 6.92773 18.9449 6.97979 18.9407 7.03339C18.9407 7.12951 19.0285 7.16608 19.1367 7.11489L21.6271 5.93C21.683 5.90115 21.7299 5.86191 21.7639 5.81544C21.798 5.76898 21.8183 5.71659 21.8231 5.66251C21.8231 5.56639 21.7416 5.52982 21.6271 5.58102Z" fill="white"/>
<path opacity="0.5" d="M21.6271 6.47652L19.1304 7.6614C19.0756 7.69083 19.03 7.73032 18.997 7.77675C18.9641 7.82318 18.9448 7.87527 18.9407 7.92888C18.9407 8.02501 19.0285 8.06158 19.1367 8.01038L21.6271 6.82551C21.6829 6.79659 21.7298 6.75734 21.7638 6.71089C21.7979 6.66443 21.8182 6.61208 21.8231 6.55802C21.8231 6.46189 21.7416 6.42532 21.6271 6.47652Z" fill="#BA68C8"/>
<path opacity="0.8" d="M21.6271 6.47652L19.1304 7.6614C19.0756 7.69083 19.03 7.73032 18.997 7.77675C18.9641 7.82318 18.9448 7.87527 18.9407 7.92888C18.9407 8.02501 19.0285 8.06158 19.1367 8.01038L21.6271 6.82551C21.6829 6.79659 21.7298 6.75734 21.7638 6.71089C21.7979 6.66443 21.8182 6.61208 21.8231 6.55802C21.8231 6.46189 21.7416 6.42532 21.6271 6.47652Z" fill="white"/>
<path opacity="0.5" d="M22.378 7.01998L19.1355 8.55698C19.0796 8.58583 19.0327 8.62507 18.9986 8.67153C18.9646 8.718 18.9443 8.77039 18.9395 8.82446C18.9395 8.92059 19.0273 8.95716 19.1355 8.90596L22.378 7.36897C22.434 7.34012 22.4809 7.30087 22.5149 7.25441C22.549 7.20794 22.5693 7.15556 22.5741 7.10148C22.569 7.00535 22.4812 6.96878 22.378 7.01998Z" fill="#BA68C8"/>
<path opacity="0.8" d="M22.378 7.01998L19.1355 8.55698C19.0796 8.58583 19.0327 8.62507 18.9986 8.67153C18.9646 8.718 18.9443 8.77039 18.9395 8.82446C18.9395 8.92059 19.0273 8.95716 19.1355 8.90596L22.378 7.36897C22.434 7.34012 22.4809 7.30087 22.5149 7.25441C22.549 7.20794 22.5693 7.15556 22.5741 7.10148C22.569 7.00535 22.4812 6.96878 22.378 7.01998Z" fill="white"/>
<path opacity="0.5" d="M21.6271 8.26754L19.1304 9.45242C19.0744 9.48127 19.0276 9.52051 18.9935 9.56697C18.9594 9.61344 18.9392 9.66583 18.9343 9.7199C18.9343 9.81603 19.0222 9.8526 19.1304 9.8014L21.6271 8.61652C21.683 8.58767 21.7299 8.54843 21.7639 8.50197C21.798 8.4555 21.8183 8.40312 21.8231 8.34904C21.8231 8.25291 21.7416 8.21634 21.6271 8.26754Z" fill="#BA68C8"/>
<path opacity="0.8" d="M21.6271 8.26754L19.1304 9.45242C19.0744 9.48127 19.0276 9.52051 18.9935 9.56697C18.9594 9.61344 18.9392 9.66583 18.9343 9.7199C18.9343 9.81603 19.0222 9.8526 19.1304 9.8014L21.6271 8.61652C21.683 8.58767 21.7299 8.54843 21.7639 8.50197C21.798 8.4555 21.8183 8.40312 21.8231 8.34904C21.8231 8.25291 21.7416 8.21634 21.6271 8.26754Z" fill="white"/>
</g>
<path d="M8.90707 14.3122L4.1737 16.5493C4.11849 16.5786 4.07253 16.6182 4.03956 16.6649C4.00658 16.7115 3.98755 16.764 3.98401 16.8178V22.1289C3.98764 22.1825 4.00673 22.2345 4.03971 22.2809C4.07269 22.3272 4.11862 22.3664 4.1737 22.3953L4.53399 22.5625C4.59321 22.587 4.65862 22.5998 4.72495 22.5998C4.79128 22.5998 4.85669 22.587 4.91591 22.5625L9.64801 20.3244C9.70305 20.2951 9.74882 20.2554 9.78158 20.2087C9.81433 20.1621 9.83313 20.1097 9.83643 20.0559V14.7459C9.83245 14.6929 9.81331 14.6415 9.78058 14.5957C9.74784 14.55 9.70242 14.5112 9.64801 14.4825L9.28772 14.3154C9.22905 14.2903 9.164 14.2769 9.09785 14.2764C9.0317 14.2758 8.96634 14.2881 8.90707 14.3122Z" fill="black"/>
<path opacity="0.2" d="M4.91528 22.5589C4.85581 22.5827 4.79049 22.5951 4.72431 22.5951C4.65813 22.5951 4.59281 22.5827 4.53333 22.5589L4.17303 22.3927C4.11757 22.3641 4.07128 22.3249 4.03805 22.2786C4.00482 22.2322 3.98562 22.18 3.98206 22.1263V16.8152C3.98522 16.7593 4.00582 16.705 4.04189 16.6575L4.77778 17.0065C4.74341 17.0525 4.72411 17.105 4.72176 17.159V22.469C4.72558 22.5599 4.80961 22.6122 4.91528 22.5589Z" fill="black"/>
<path opacity="0.5" d="M9.83374 14.7154C9.81846 14.637 9.74081 14.6109 9.6466 14.6538L4.91599 16.8908C4.86232 16.9201 4.81853 16.96 4.78869 17.0068L4.04651 16.6578C4.07672 16.6126 4.12055 16.5744 4.17381 16.5471L8.90442 14.31C8.96364 14.2855 9.02905 14.2727 9.09538 14.2727C9.16171 14.2727 9.22711 14.2855 9.28633 14.31L9.64788 14.4803C9.69735 14.5065 9.73949 14.541 9.77153 14.5815C9.80357 14.622 9.82477 14.6677 9.83374 14.7154Z" fill="white"/>
<path d="M9.64728 14.6536L4.91527 16.8907C4.86007 16.9199 4.8141 16.9596 4.78113 17.0062C4.74816 17.0529 4.72913 17.1053 4.72559 17.1592V22.4692C4.72559 22.5685 4.81088 22.6082 4.91527 22.5591L9.64728 20.322C9.70232 20.2927 9.74809 20.253 9.78084 20.2063C9.8136 20.1597 9.8324 20.1073 9.83569 20.0535V14.7435C9.83442 14.6442 9.7504 14.6045 9.64728 14.6536Z" fill="black"/>
<path d="M5.03879 19.6491C5.03825 19.616 5.04515 19.583 5.05916 19.552C5.0765 19.5207 5.09693 19.4906 5.12027 19.4621L6.23544 17.9815L6.25326 17.9638L6.26599 17.9564C6.2718 17.9523 6.27927 17.95 6.287 17.95C6.29473 17.95 6.30219 17.9523 6.308 17.9564C6.31426 17.9627 6.31895 17.9698 6.32179 17.9775C6.32463 17.9853 6.32557 17.9934 6.32455 18.0014V18.5729C6.32637 18.6142 6.31542 18.6552 6.29273 18.692C6.27151 18.7248 6.25241 18.7509 6.23544 18.7704L5.74787 19.3911L6.23544 19.5478C6.2557 19.5528 6.27499 19.5602 6.29273 19.5697C6.31437 19.5812 6.32455 19.6094 6.32455 19.6564V20.2269C6.32486 20.2479 6.31919 20.2687 6.308 20.2875C6.29964 20.3045 6.28493 20.3187 6.26599 20.3283H6.25326C6.24739 20.3294 6.24131 20.3294 6.23544 20.3283L5.12027 19.9104C5.09679 19.9036 5.07578 19.8921 5.05916 19.8769C5.04282 19.8539 5.0357 19.8272 5.03879 19.8006V19.6491Z" fill="white"/>
<path d="M7.47157 17.1385C7.48127 17.1066 7.49536 17.0758 7.51358 17.0465C7.53126 17.0163 7.55966 16.9912 7.59507 16.9745L7.9681 16.7979C7.97411 16.7936 7.9818 16.7913 7.98975 16.7913C7.99769 16.7913 8.00538 16.7936 8.01139 16.7979C8.0181 16.8041 8.02316 16.8114 8.02623 16.8193C8.0293 16.8272 8.03031 16.8356 8.02921 16.8438C8.03079 16.8553 8.03079 16.8669 8.02921 16.8783L7.0858 20.177C7.07666 20.2079 7.06387 20.238 7.04761 20.2668C7.02909 20.2978 6.99986 20.3236 6.96358 20.341L6.59182 20.5166C6.58581 20.5208 6.57812 20.5232 6.57018 20.5232C6.56223 20.5232 6.55455 20.5208 6.54853 20.5166C6.54172 20.5104 6.53652 20.5031 6.53323 20.4952C6.52995 20.4873 6.52866 20.4789 6.52943 20.4706C6.52795 20.4591 6.52795 20.4476 6.52943 20.4361L7.47157 17.1385Z" fill="white"/>
<path d="M9.51999 17.6717C9.52064 17.7045 9.51373 17.7372 9.49962 17.7679C9.48228 17.7991 9.46185 17.8292 9.43851 17.8577L8.32333 19.3383C8.31788 19.3448 8.31146 19.3508 8.30423 19.3561L8.29277 19.3644C8.27495 19.3717 8.26095 19.3717 8.25076 19.3644C8.24444 19.3582 8.23971 19.3511 8.23687 19.3433C8.23402 19.3356 8.23312 19.3275 8.23421 19.3195V18.749C8.23227 18.708 8.24324 18.6674 8.26604 18.6309C8.28768 18.5996 8.30678 18.5745 8.32333 18.5546L8.8109 17.935L8.32333 17.7825C8.3028 17.777 8.28346 17.7689 8.26604 17.7585C8.2444 17.7459 8.23421 17.7167 8.23421 17.6696V17.0918C8.23409 17.0709 8.23975 17.0501 8.25076 17.0312C8.25905 17.0143 8.27378 17 8.29277 16.9905H8.30423H8.32333L9.43851 17.4137C9.46176 17.4208 9.48267 17.4322 9.49962 17.4471C9.5158 17.4702 9.52292 17.4968 9.51999 17.5234V17.6717Z" fill="white"/>
</svg>
